<svg width="36" height="35" viewBox="0 0 36 35" fill="none" xmlns="http://www.w3.org/2000/svg">
<path d="M7.26102 0.263672C3.78759 0.263672 0.990784 3.06048 0.990784 6.53391V28.3333C0.990784 31.8067 3.78759 34.6035 7.26102 34.6035H19.0761V21.1788H15.5262V16.3454H19.0761V12.2161C19.0761 8.97183 21.1735 5.99306 26.0052 5.99306C27.9615 5.99306 29.4081 6.18087 29.4081 6.18087L29.2943 10.6944C29.2943 10.6944 27.819 10.6805 26.2091 10.6805C24.4667 10.6805 24.1873 11.4833 24.1873 12.816V16.3455H29.4327L29.2042 21.1788H24.1873V34.6035H29.0603C32.5338 34.6035 35.3306 31.8067 35.3306 28.3333V6.53395C35.3306 3.06051 32.5338 0.263706 29.0603 0.263706H7.26099L7.26102 0.263672Z" fill="#2DC574"/>
</svg>
