<svg width="35" height="35" viewBox="0 0 35 35" fill="none" xmlns="http://www.w3.org/2000/svg">
<path d="M17.8067 0.263916C22.4717 0.263916 23.0538 0.281086 24.8841 0.366935C26.7127 0.452785 27.9575 0.739522 29.053 1.16534C30.1862 1.60145 31.1408 2.1921 32.0955 3.14503C32.9685 4.00334 33.6441 5.04159 34.0752 6.18753C34.4993 7.28125 34.7877 8.52779 34.8736 10.3564C34.9543 12.1867 34.9766 12.7688 34.9766 17.4338C34.9766 22.0989 34.9594 22.6809 34.8736 24.5112C34.7877 26.3398 34.4993 27.5847 34.0752 28.6801C33.6454 29.8267 32.9696 30.8652 32.0955 31.7226C31.2369 32.5954 30.1987 33.2709 29.053 33.7023C27.9592 34.1264 26.7127 34.4148 24.8841 34.5007C23.0538 34.5814 22.4717 34.6037 17.8067 34.6037C13.1416 34.6037 12.5596 34.5865 10.7292 34.5007C8.90065 34.4148 7.65583 34.1264 6.56039 33.7023C5.41401 33.2721 4.37557 32.5965 3.51789 31.7226C2.64464 30.8644 1.96905 29.8261 1.5382 28.6801C1.11239 27.5864 0.825649 26.3398 0.739799 24.5112C0.659101 22.6809 0.63678 22.0989 0.63678 17.4338C0.63678 12.7688 0.65395 12.1867 0.739799 10.3564C0.825649 8.52607 1.11239 7.28297 1.5382 6.18753C1.96785 5.04089 2.6436 4.00235 3.51789 3.14503C4.37582 2.27147 5.41418 1.59584 6.56039 1.16534C7.65583 0.739522 8.89893 0.452785 10.7292 0.366935C12.5596 0.286237 13.1416 0.263916 17.8067 0.263916ZM17.8067 8.84887C15.5298 8.84887 13.3462 9.75335 11.7362 11.3633C10.1262 12.9733 9.22173 15.1569 9.22173 17.4338C9.22173 19.7107 10.1262 21.8943 11.7362 23.5043C13.3462 25.1143 15.5298 26.0188 17.8067 26.0188C20.0835 26.0188 22.2672 25.1143 23.8772 23.5043C25.4871 21.8943 26.3916 19.7107 26.3916 17.4338C26.3916 15.1569 25.4871 12.9733 23.8772 11.3633C22.2672 9.75335 20.0835 8.84887 17.8067 8.84887ZM28.9671 8.41962C28.9671 7.8504 28.741 7.3045 28.3385 6.902C27.936 6.4995 27.3901 6.27338 26.8209 6.27338C26.2517 6.27338 25.7058 6.4995 25.3033 6.902C24.9008 7.3045 24.6746 7.8504 24.6746 8.41962C24.6746 8.98884 24.9008 9.53474 25.3033 9.93724C25.7058 10.3397 26.2517 10.5659 26.8209 10.5659C27.3901 10.5659 27.936 10.3397 28.3385 9.93724C28.741 9.53474 28.9671 8.98884 28.9671 8.41962ZM17.8067 12.2828C19.1728 12.2828 20.483 12.8255 21.449 13.7915C22.415 14.7575 22.9576 16.0677 22.9576 17.4338C22.9576 18.7999 22.415 20.1101 21.449 21.0761C20.483 22.0421 19.1728 22.5848 17.8067 22.5848C16.4406 22.5848 15.1304 22.0421 14.1644 21.0761C13.1984 20.1101 12.6557 18.7999 12.6557 17.4338C12.6557 16.0677 13.1984 14.7575 14.1644 13.7915C15.1304 12.8255 16.4406 12.2828 17.8067 12.2828Z" fill="#2DC574"/>
</svg>
