<svg width="35" height="35" viewBox="0 0 35 35" fill="none" xmlns="http://www.w3.org/2000/svg">
<path d="M17.291 0.262451C7.81321 0.262451 0.121094 7.95457 0.121094 17.4324C0.121094 26.9101 7.81321 34.6022 17.291 34.6022C26.7688 34.6022 34.4609 26.9101 34.4609 17.4324C34.4609 7.95457 26.7688 0.262451 17.291 0.262451ZM25.2578 11.938C25.0003 14.6508 23.8842 21.2441 23.3176 24.2831C23.0772 25.5709 22.5965 26.0001 22.1501 26.0516C21.1542 26.1375 20.3987 25.3992 19.4372 24.7639C17.9263 23.768 17.0678 23.1499 15.6083 22.1884C13.9085 21.0724 15.0074 20.4543 15.9861 19.4584C16.2436 19.2008 20.6391 15.2003 20.725 14.8397C20.7369 14.7851 20.7353 14.7284 20.7204 14.6745C20.7054 14.6207 20.6775 14.5713 20.6391 14.5306C20.5361 14.4448 20.3987 14.4791 20.2786 14.4963C20.124 14.5306 17.7202 16.1274 13.0329 19.2867C12.3461 19.7503 11.7279 19.9907 11.1785 19.9735C10.5604 19.9563 9.39284 19.6301 8.51717 19.3382C7.43547 18.9948 6.59415 18.8059 6.66283 18.205C6.69717 17.8959 7.12641 17.5869 7.9334 17.2607C12.947 15.0801 16.278 13.6378 17.9434 12.951C22.7167 10.9593 23.6954 10.6159 24.3478 10.6159C24.4852 10.6159 24.8114 10.6502 25.0174 10.8219C25.1891 10.9593 25.2407 11.1482 25.2578 11.2855C25.2407 11.3885 25.275 11.6976 25.2578 11.938Z" fill="#2DC574"/>
</svg>
