<svg width="36" height="35" viewBox="0 0 36 35" fill="none" xmlns="http://www.w3.org/2000/svg">
<path fill-rule="evenodd" clip-rule="evenodd" d="M3.32307 2.67805C0.90918 5.09195 0.90918 8.97703 0.90918 16.7473V18.1209C0.90918 25.8911 0.90918 29.7761 3.32307 32.1901C5.73697 34.604 9.62205 34.604 17.3923 34.604H18.7659C26.5361 34.604 30.4212 34.604 32.8351 32.1901C35.249 29.7761 35.249 25.8911 35.249 18.1209V16.7473C35.249 8.97703 35.249 5.09195 32.8351 2.67805C30.4212 0.26416 26.5361 0.26416 18.7659 0.26416H17.3923C9.62205 0.26416 5.73697 0.26416 3.32307 2.67805ZM6.70312 10.7092C6.88913 19.6376 11.3532 25.0032 19.1798 25.0032H19.6235V19.8951C22.4995 20.1813 24.6741 22.2846 25.5469 25.0032H29.6106C28.4946 20.9396 25.5613 18.6932 23.7298 17.8347C25.5613 16.7759 28.1367 14.2004 28.752 10.7092H25.0604C24.2591 13.5423 21.8843 16.1177 19.6235 16.361V10.7092H15.9319V20.6105C13.6426 20.0382 10.7524 17.2624 10.6236 10.7092H6.70312Z" fill="#2DC574"/>
</svg>
