<svg width="237" height="127" viewBox="0 0 237 127" fill="none" xmlns="http://www.w3.org/2000/svg">
<path d="M232.877 34.0811C226.314 30.7188 208.407 36.3783 203.742 39.3155C202.215 36.6562 200.482 33.7436 198.603 30.7613C188.997 15.5136 180.85 6.67752 173.697 3.74934C173.41 3.63168 173.113 3.53754 172.81 3.46744C172.197 3.32574 157.329 0 118.5 0C79.6714 0 64.8041 3.32624 64.1901 3.46744C63.8867 3.53754 63.5904 3.63168 63.3034 3.74934C56.1504 6.67802 48.0032 15.5136 38.3968 30.7613C36.518 33.7436 34.7845 36.6562 33.2577 39.3155C28.5929 36.3783 10.6858 30.7188 4.12323 34.0811C-2.6486 37.5505 0.0647364 48.4706 4.12323 51.4323C6.65697 53.2809 13.6089 53.8437 20.9297 53.3676C19.2735 55.5261 17.9682 57.9556 17.0846 60.5723C28.6297 62.6903 55.7687 62.5987 51.7128 71.2095C45.7785 83.8049 27.5133 82.0614 16.2542 76.4615L18.3566 111.974C18.3566 120.273 25.2313 127 33.7115 127H42.9455C51.4257 127 58.2999 120.273 58.2999 111.974L57.9985 108.791H179.002L178.701 111.974C178.701 120.273 185.575 127 194.055 127H203.289C211.769 127 218.644 120.273 218.644 111.974L220.746 76.4615C209.487 82.0614 191.222 83.8054 185.288 71.2095C181.231 62.5987 208.37 62.6903 219.916 60.5723C219.032 57.9551 217.728 55.5256 216.071 53.3676C223.392 53.8442 230.344 53.2814 232.877 51.4323C236.935 48.4706 239.649 37.5505 232.877 34.0811ZM148.046 92.1013H88.9529L82.813 70.1925H154.186L148.046 92.1013ZM43.9365 43.2877C51.2871 30.7028 60.6801 17.2631 67.2442 14.1657C69.9964 13.6364 85.0121 11.0858 118.5 11.0858C152.026 11.0858 167.038 13.6424 169.754 14.1652C176.31 17.2581 185.705 30.6998 193.059 43.2877H43.9365Z" fill="#18B05F"/>
</svg>
