<svg width="136" height="51" viewBox="0 0 136 51" fill="none" xmlns="http://www.w3.org/2000/svg">
<path d="M124.388 0.000165749H10.7686C10.3544 0.000165749 9.94524 0.00016575 9.53218 0.00271574C9.18641 0.00526573 8.8434 0.0126735 8.49431 0.0189082C7.73592 0.028983 6.97932 0.104303 6.23108 0.244213C5.48389 0.387169 4.7601 0.656681 4.0842 1.04364C3.40913 1.43386 2.7923 1.94092 2.25608 2.54642C1.71705 3.15022 1.26772 3.84812 0.925384 4.6133C0.582099 5.37696 0.344065 6.19529 0.219501 7.04003C0.0937535 7.8837 0.0260876 8.7371 0.0171106 9.59257C0.00662965 9.98349 0.00552282 10.3757 0 10.7667V40.2373C0.00552282 40.6331 0.00662965 41.0167 0.0171106 41.4127C0.0260903 42.2681 0.0937563 43.1215 0.219501 43.9651C0.343721 44.8103 0.581769 45.6291 0.925384 46.3931C1.26757 47.1558 1.71696 47.8508 2.25608 48.4513C2.79026 49.0595 3.40749 49.5669 4.0842 49.9541C4.7601 50.3421 5.4838 50.6132 6.23108 50.7584C6.97945 50.8972 7.73597 50.9725 8.49431 50.9838C8.8434 50.9925 9.18641 50.9975 9.53218 50.9975C9.94523 51 10.3544 51 10.7686 51H124.388C124.793 51 125.206 51 125.612 50.9975C125.956 50.9975 126.309 50.9925 126.653 50.9838C127.41 50.9731 128.165 50.8978 128.912 50.7584C129.662 50.6122 130.388 50.3412 131.067 49.9541C131.743 49.5667 132.36 49.0593 132.893 48.4513C133.431 47.8485 133.882 47.1539 134.228 46.3931C134.569 45.6286 134.805 44.8098 134.927 43.9651C135.053 43.1213 135.123 42.2682 135.137 41.4127C135.141 41.0167 135.141 40.6331 135.141 40.2373C135.15 39.774 135.15 39.3134 135.15 38.8427V12.1587C135.15 11.6918 135.15 11.2286 135.141 10.7667C135.141 10.3757 135.141 9.98349 135.137 9.59252C135.123 8.73698 135.053 7.88377 134.927 7.03998C134.804 6.19573 134.569 5.37747 134.228 4.61325C133.531 3.07953 132.425 1.83109 131.067 1.04352C130.388 0.657512 129.661 0.388071 128.912 0.244098C128.165 0.103571 127.41 0.0282256 126.653 0.0187297C126.309 0.0125077 125.956 0.00503623 125.612 0.00254999C125.206 0 124.793 0 124.388 0V0.000165749Z" fill="black"/>
<path d="M39.2584 14.3736H40.1935C40.3545 14.3936 40.5179 14.3801 40.6734 14.334C40.8289 14.2879 40.9731 14.2102 41.097 14.1058C41.2208 14.0013 41.3217 13.8724 41.3931 13.7272C41.4646 13.582 41.505 13.4236 41.512 13.262C41.512 12.6188 41.0268 12.2033 40.2038 12.2033C40.0389 12.1804 39.871 12.1906 39.7101 12.2334C39.5492 12.2761 39.3986 12.3506 39.267 12.4525C39.1355 12.5543 39.0257 12.6813 38.9442 12.8262C38.8627 12.971 38.8112 13.1306 38.7926 13.2956H37.7659C37.7836 12.9961 37.8629 12.7034 37.9989 12.4357C38.1349 12.168 38.3248 11.9312 38.5566 11.7399C38.7884 11.5485 39.0572 11.4068 39.3463 11.3236C39.6354 11.2404 39.9386 11.2174 40.237 11.256C41.6139 11.256 42.5834 12.0247 42.5834 13.1313C42.5866 13.502 42.4622 13.8626 42.231 14.1528C41.9998 14.4431 41.6757 14.6455 41.3129 14.7263V14.8085C41.743 14.8275 42.1481 15.0156 42.4396 15.3316C42.7311 15.6476 42.8852 16.0658 42.8684 16.4948C42.8365 16.8033 42.7433 17.1022 42.5941 17.3743C42.4449 17.6463 42.2427 17.8859 41.9994 18.079C41.7562 18.272 41.4767 18.4148 41.1774 18.4988C40.8781 18.5828 40.565 18.6063 40.2565 18.5681C39.9473 18.6101 39.6328 18.5897 39.3317 18.5079C39.0306 18.4261 38.7491 18.2848 38.504 18.0922C38.2588 17.8996 38.0551 17.6598 37.9049 17.387C37.7547 17.1143 37.6611 16.8141 37.6297 16.5045H38.6724C38.7354 17.1717 39.35 17.602 40.2565 17.602C41.163 17.602 41.7547 17.1186 41.7547 16.4372C41.7547 15.7462 41.1973 15.3204 40.2233 15.3204H39.2584V14.3736Z" fill="white"/>
<path d="M44.0533 16.9112C44.0533 15.9639 44.7618 15.4177 46.0162 15.3401L47.4458 15.2579V14.8037C47.4458 14.2478 47.0784 13.934 46.3653 13.934C45.7839 13.934 45.3822 14.1468 45.2654 14.5189H44.2571C44.3635 13.615 45.2173 13.0352 46.4146 13.0352C47.7377 13.0352 48.4839 13.692 48.4839 14.8037V18.3995H47.4801V17.6599H47.3977C47.2305 17.9252 46.9956 18.1415 46.7171 18.2867C46.4386 18.4318 46.1264 18.5007 45.8125 18.4862C45.591 18.5092 45.367 18.4856 45.1552 18.417C44.9433 18.3484 44.7482 18.2363 44.5825 18.0879C44.4167 17.9395 44.284 17.7581 44.1929 17.5555C44.1017 17.3528 44.0542 17.1333 44.0533 16.9112V16.9112ZM47.4458 16.4615V16.0215L46.157 16.1037C45.4302 16.1522 45.1005 16.3987 45.1005 16.8627C45.1005 17.3363 45.5126 17.612 46.0792 17.612C46.2452 17.6287 46.4129 17.612 46.5723 17.5628C46.7317 17.5136 46.8796 17.433 47.0071 17.3256C47.1346 17.2183 47.2391 17.0865 47.3145 16.938C47.3899 16.7896 47.4345 16.6275 47.4458 16.4615V16.4615Z" fill="white"/>
<path d="M51.2471 14.0115V18.4H50.2056V13.1372H53.6805V14.0114L51.2471 14.0115Z" fill="white"/>
<path d="M59.9932 15.7667C59.9932 17.4388 59.145 18.4872 57.8128 18.4872C57.4857 18.5094 57.1591 18.4381 56.8714 18.2815C56.5837 18.1249 56.3468 17.8895 56.1887 17.6032H56.1062V20.1501H55.0647V13.1376H56.0673V14.0074H56.1452C56.3061 13.711 56.5461 13.4648 56.8386 13.2959C57.131 13.1271 57.4646 13.0421 57.8025 13.0504C59.145 13.0503 59.9932 14.0941 59.9932 15.7667ZM58.9219 15.7667C58.9219 14.6551 58.3942 13.9834 57.5118 13.9834C56.6351 13.9834 56.0868 14.6693 56.0868 15.7713C56.0868 16.8682 56.635 17.5547 57.5072 17.5547C58.3942 17.5547 58.9219 16.883 58.9219 15.7667Z" fill="white"/>
<path d="M61.3814 20.2849V19.3907C61.4941 19.405 61.6077 19.4115 61.7213 19.4101C61.9432 19.4265 62.1633 19.3606 62.3395 19.225C62.5157 19.0895 62.6354 18.8938 62.6758 18.6756L62.7537 18.4194L60.8434 13.1372H61.9777L63.3008 17.3174H63.3832L64.7017 13.1372H65.8062L63.8388 18.6174C63.3878 19.898 62.8888 20.3089 61.8129 20.3089C61.7259 20.3089 61.4787 20.2992 61.3814 20.2849Z" fill="white"/>
<path d="M66.6167 16.9043H67.6536C67.7555 17.3682 68.1916 17.6102 68.8016 17.6102C69.4952 17.6102 69.921 17.3054 69.921 16.8318C69.921 16.3245 69.5387 16.0825 68.8016 16.0825H68.0119V15.2756H68.7879C69.4174 15.2756 69.7379 15.0342 69.7379 14.5942C69.7379 14.2078 69.4277 13.9128 68.7879 13.9128C68.2053 13.9128 67.7795 14.1593 67.712 14.5748H66.7082C66.7833 14.0974 67.0432 13.6685 67.4321 13.3802C67.821 13.0919 68.3079 12.9674 68.7879 13.0334C70.0423 13.0334 70.76 13.5989 70.76 14.488C70.7658 14.7356 70.6863 14.9777 70.5346 15.1738C70.3829 15.37 70.1683 15.5082 69.9267 15.5655V15.6477C70.2144 15.6847 70.4784 15.8257 70.6687 16.044C70.859 16.2622 70.9624 16.5426 70.9591 16.8318C70.9591 17.8323 70.1053 18.4942 68.8016 18.4942C67.6491 18.4942 66.7128 17.9674 66.6167 16.9043Z" fill="white"/>
<path d="M72.4588 18.4V13.1372H73.4911V16.757H73.5736L76.0057 13.1372H77.0381V18.4H76.0057V14.7608H75.9279L73.4911 18.4L72.4588 18.4Z" fill="white"/>
<path d="M82.7222 14.0114H81.0603V18.3999H80.0176V14.0114H78.3556V13.1372H82.7222V14.0114Z" fill="white"/>
<path d="M88.3335 16.9786C88.1916 17.4596 87.8847 17.8755 87.4665 18.1538C87.0483 18.4321 86.5454 18.5551 86.0455 18.5012C85.6978 18.5103 85.3523 18.4439 85.0329 18.3066C84.7135 18.1692 84.428 17.9642 84.196 17.7057C83.964 17.4473 83.7913 17.1416 83.6897 16.8099C83.5881 16.4781 83.5601 16.1284 83.6076 15.7848C83.5613 15.4401 83.5898 15.0896 83.6912 14.7569C83.7925 14.4242 83.9644 14.117 84.1951 13.8563C84.4259 13.5956 84.7101 13.3874 85.0285 13.2457C85.347 13.1041 85.6923 13.0323 86.0409 13.0352C87.5094 13.0352 88.3964 14.0357 88.3964 15.6883V16.0507H84.6698V16.1089C84.6533 16.3021 84.6775 16.4966 84.7408 16.6799C84.8042 16.8632 84.9053 17.0312 85.0377 17.1732C85.1701 17.3152 85.3308 17.428 85.5095 17.5043C85.6881 17.5807 85.8809 17.619 86.0753 17.6166C86.3243 17.6463 86.5765 17.6015 86.7998 17.4879C87.0232 17.3743 87.2076 17.197 87.3297 16.9786L88.3335 16.9786ZM84.6697 15.2826H87.3343C87.3474 15.106 87.3234 14.9287 87.2638 14.762C87.2041 14.5952 87.1102 14.4428 86.988 14.3144C86.8657 14.186 86.7179 14.0845 86.5541 14.0165C86.3902 13.9484 86.2138 13.9153 86.0364 13.9192C85.8562 13.9168 85.6773 13.9504 85.5104 14.018C85.3434 14.0857 85.1918 14.186 85.0644 14.3131C84.937 14.4402 84.8364 14.5915 84.7686 14.758C84.7009 14.9245 84.6672 15.1029 84.6698 15.2826H84.6697Z" fill="white"/>
<path d="M92.7492 13.1372H95.1287C96.1611 13.1372 96.7666 13.6588 96.7666 14.4754C96.7682 14.7345 96.6805 14.9864 96.5182 15.1887C96.3559 15.3911 96.1288 15.5317 95.875 15.5871V15.6693C96.1832 15.6887 96.4722 15.8254 96.6822 16.0512C96.8922 16.277 97.0072 16.5746 97.0035 16.8825C97.0035 17.8007 96.3111 18.4 95.1528 18.4H92.7492V13.1372ZM93.7816 13.9344V15.2972H94.814C95.4435 15.2972 95.7445 15.0558 95.7445 14.6107C95.7445 14.2004 95.4824 13.9344 94.9296 13.9344L93.7816 13.9344ZM93.7816 16.0608V17.6028H95.0166C95.6324 17.6028 95.962 17.3317 95.962 16.8341C95.962 16.3073 95.5889 16.0608 94.8861 16.0608L93.7816 16.0608Z" fill="white"/>
<path d="M26.3843 26.2569C26.3966 25.2985 26.6519 24.3588 27.1264 23.5253C27.6008 22.6917 28.279 21.9913 29.0978 21.4893C28.5776 20.7485 27.8914 20.1389 27.0936 19.7088C26.2958 19.2787 25.4085 19.0401 24.5021 19.0118C22.5685 18.8094 20.694 20.1656 19.7086 20.1656C18.7042 20.1656 17.1872 19.0319 15.5536 19.0654C14.4969 19.0995 13.4671 19.4059 12.5645 19.9548C11.6619 20.5037 10.9172 21.2764 10.4032 22.1977C8.17622 26.0425 9.83731 31.693 11.9705 34.8009C13.0378 36.3227 14.2852 38.0226 15.9173 37.9623C17.5145 37.8963 18.111 36.9467 20.0389 36.9467C21.9489 36.9467 22.5085 37.9623 24.1738 37.924C25.8876 37.8962 26.9674 36.3954 27.9973 34.8592C28.7641 33.7748 29.3542 32.5764 29.7457 31.3082C28.75 30.8883 27.9003 30.1853 27.3025 29.2871C26.7048 28.3888 26.3854 27.335 26.3843 26.2569V26.2569Z" fill="white"/>
<path d="M23.2387 16.9671C24.1731 15.8484 24.6335 14.4106 24.522 12.959C23.0944 13.1085 21.7756 13.7889 20.8286 14.8646C20.3655 15.3901 20.0109 16.0015 19.7849 16.6638C19.5589 17.326 19.4661 18.0262 19.5116 18.7243C20.2257 18.7316 20.9321 18.5773 21.5777 18.2729C22.2233 17.9685 22.7912 17.522 23.2387 16.9671Z" fill="white"/>
<path d="M45.7817 34.2699H40.234L38.9018 38.1927H36.552L41.8067 23.6792H44.248L49.5027 38.1927H47.1128L45.7817 34.2699ZM40.8086 32.4597H45.206L43.0382 26.0932H42.9776L40.8086 32.4597Z" fill="white"/>
<path d="M60.8518 32.8962C60.8518 36.1844 59.0869 38.2971 56.4235 38.2971C55.7488 38.3322 55.0778 38.1773 54.4874 37.8499C53.8969 37.5224 53.4108 37.0358 53.0848 36.4458H53.0344V41.6869H50.8563V27.6049H52.9646V29.3648H53.0047C53.3457 28.7776 53.84 28.2935 54.4349 27.9641C55.0299 27.6347 55.7033 27.4723 56.3834 27.4941C59.0765 27.4942 60.8518 29.6171 60.8518 32.8962ZM58.613 32.8962C58.613 30.7539 57.5028 29.3454 55.8089 29.3454C54.1447 29.3454 53.0253 30.7835 53.0253 32.8962C53.0253 35.0282 54.1447 36.4561 55.8089 36.4561C57.5028 36.4561 58.613 35.0579 58.613 32.8962Z" fill="white"/>
<path d="M72.531 32.8962C72.531 36.1844 70.7661 38.297 68.1027 38.297C67.428 38.3322 66.757 38.1773 66.1666 37.8498C65.5761 37.5224 65.0901 37.0358 64.764 36.4458H64.7136V41.6869H62.5356V27.6048H64.6438V29.3648H64.6839C65.0249 28.7776 65.5192 28.2935 66.1141 27.9641C66.7091 27.6347 67.3825 27.4723 68.0626 27.4941C70.7558 27.4941 72.531 29.617 72.531 32.8962ZM70.2923 32.8962C70.2923 30.7539 69.182 29.3454 67.4881 29.3454C65.8239 29.3454 64.7045 30.7835 64.7045 32.8962C64.7045 35.0282 65.8239 36.456 67.4881 36.456C69.182 36.456 70.2923 35.0579 70.2923 32.8962H70.2923Z" fill="white"/>
<path d="M80.2499 34.1487C80.4113 35.5879 81.8134 36.5329 83.7294 36.5329C85.5652 36.5329 86.8861 35.5879 86.8861 34.2902C86.8861 33.1636 86.0894 32.4891 84.2032 32.0269L82.317 31.5737C79.6445 30.93 78.4037 29.6836 78.4037 27.6612C78.4037 25.157 80.5921 23.437 83.6996 23.437C86.775 23.437 88.8833 25.157 88.9543 27.6612H86.7556C86.6239 26.2128 85.4233 25.3385 83.6687 25.3385C81.9141 25.3385 80.7134 26.2231 80.7134 27.5105C80.7134 28.5366 81.4803 29.1404 83.3562 29.6026L84.9597 29.9952C87.9459 30.6994 89.1866 31.8956 89.1866 34.0185C89.1866 36.7337 87.0177 38.4344 83.568 38.4344C80.3403 38.4344 78.1611 36.7737 78.0203 34.1486L80.2499 34.1487Z" fill="white"/>
<path d="M93.8835 25.1016V27.6057H95.9014V29.3257H93.8835V35.1592C93.8835 36.0654 94.2875 36.4877 95.1746 36.4877C95.4141 36.4835 95.6533 36.4668 95.8911 36.4374V38.1472C95.4923 38.2215 95.0869 38.2552 94.6813 38.2476C92.5329 38.2476 91.6951 37.443 91.6951 35.3908V29.3257H90.1523V27.6057H91.6951V25.1016H93.8835Z" fill="white"/>
<path d="M97.0746 32.9024C97.0746 29.5731 99.041 27.481 102.107 27.481C105.184 27.481 107.141 29.573 107.141 32.9024C107.141 36.2409 105.194 38.3238 102.107 38.3238C99.0215 38.3238 97.0746 36.2408 97.0746 32.9024ZM104.922 32.9024C104.922 30.6185 103.872 29.2706 102.107 29.2706C100.342 29.2706 99.2939 30.6288 99.2939 32.9024C99.2939 35.1954 100.342 36.533 102.107 36.533C103.872 36.533 104.922 35.1954 104.922 32.9024H104.922Z" fill="white"/>
<path d="M108.934 27.6048H111.011V29.4058H111.062C111.202 28.8433 111.533 28.3462 111.998 27.998C112.462 27.6499 113.033 27.4719 113.614 27.494C113.865 27.4932 114.115 27.5203 114.36 27.5751V29.6067C114.044 29.5101 113.713 29.4658 113.382 29.4754C113.065 29.4626 112.75 29.5183 112.457 29.6385C112.164 29.7588 111.901 29.9408 111.685 30.1721C111.47 30.4033 111.307 30.6784 111.208 30.9784C111.109 31.2784 111.076 31.5962 111.112 31.9099V38.1862H108.934L108.934 27.6048Z" fill="white"/>
<path d="M124.406 35.0856C124.113 37.0065 122.238 38.3248 119.837 38.3248C116.751 38.3248 114.835 36.2624 114.835 32.9536C114.835 29.6345 116.761 27.4819 119.746 27.4819C122.682 27.4819 124.528 29.493 124.528 32.7013V33.4455H117.033V33.5768C116.999 33.9662 117.048 34.3585 117.177 34.7276C117.306 35.0968 117.512 35.4343 117.782 35.7178C118.052 36.0012 118.38 36.2242 118.743 36.3718C119.106 36.5194 119.496 36.5883 119.888 36.574C120.402 36.622 120.919 36.5032 121.361 36.235C121.802 35.9669 122.145 35.5637 122.338 35.0856L124.406 35.0856ZM117.044 31.9275H122.349C122.368 31.5774 122.315 31.227 122.192 30.8983C122.07 30.5696 121.88 30.2698 121.636 30.0176C121.391 29.7654 121.097 29.5664 120.772 29.4329C120.447 29.2994 120.097 29.2344 119.746 29.2419C119.391 29.2398 119.04 29.3077 118.711 29.4419C118.383 29.576 118.085 29.7736 117.834 30.0232C117.582 30.2729 117.383 30.5697 117.248 30.8966C117.112 31.2234 117.043 31.5738 117.044 31.9275V31.9275Z" fill="white"/>
</svg>
