<svg width="40" height="40" viewBox="0 0 40 40" fill="none" xmlns="http://www.w3.org/2000/svg">
<path d="M20 15.8333C20.9205 15.8333 21.6667 15.0871 21.6667 14.1667C21.6667 13.2462 20.9205 12.5 20 12.5C19.0796 12.5 18.3334 13.2462 18.3334 14.1667C18.3334 15.0871 19.0796 15.8333 20 15.8333Z" fill="#CDCDCD"/>
<path d="M20 17.5C19.558 17.5 19.1341 17.6561 18.8215 17.934C18.509 18.2118 18.3334 18.5886 18.3334 18.9815V25.8334C18.3334 26.2263 18.509 26.6031 18.8215 26.881C19.1341 27.1588 19.558 27.3149 20 27.3149C20.4421 27.3149 20.866 27.1588 21.1786 26.881C21.4911 26.6031 21.6667 26.2263 21.6667 25.8334V18.9815C21.6667 18.5886 21.4911 18.2118 21.1786 17.934C20.866 17.6561 20.4421 17.5 20 17.5Z" fill="#CDCDCD"/>
<circle cx="20" cy="20" r="12.8333" stroke="#CDCDCD"/>
</svg>
