<svg width="67" height="67" viewBox="0 0 67 67" fill="none" xmlns="http://www.w3.org/2000/svg">
<path d="M66.6899 33.345C66.6899 51.7609 51.7609 66.6899 33.345 66.6899C14.9291 66.6899 0 51.7609 0 33.345C0 14.9291 14.9291 0 33.345 0C51.7609 0 66.6899 14.9291 66.6899 33.345Z" fill="#FF0000"/>
<path d="M19.6071 33.065C19.6071 36.1714 17.0889 38.6896 13.9825 38.6896C10.8761 38.6896 8.35791 36.1714 8.35791 33.065C8.35791 29.9586 10.8761 27.4404 13.9825 27.4404C17.0889 27.4404 19.6071 29.9586 19.6071 33.065Z" fill="white"/>
<path fill-rule="evenodd" clip-rule="evenodd" d="M41.0855 36.3114C42.8777 36.3114 44.3305 34.8586 44.3305 33.0665C44.3305 31.2743 42.8777 29.8215 41.0855 29.8215C39.2934 29.8215 37.8406 31.2743 37.8406 33.0665C37.8406 34.8586 39.2934 36.3114 41.0855 36.3114ZM41.0855 38.6911C44.1919 38.6911 46.7101 36.1729 46.7101 33.0665C46.7101 29.9601 44.1919 27.4419 41.0855 27.4419C37.9792 27.4419 35.4609 29.9601 35.4609 33.0665C35.4609 36.1729 37.9792 38.6911 41.0855 38.6911Z" fill="white"/>
<path fill-rule="evenodd" clip-rule="evenodd" d="M52.7042 36.3114C54.4963 36.3114 55.9491 34.8586 55.9491 33.0665C55.9491 31.2743 54.4963 29.8215 52.7042 29.8215C50.912 29.8215 49.4592 31.2743 49.4592 33.0665C49.4592 34.8586 50.912 36.3114 52.7042 36.3114ZM52.7042 38.6911C55.8106 38.6911 58.3288 36.1729 58.3288 33.0665C58.3288 29.9601 55.8106 27.4419 52.7042 27.4419C49.5978 27.4419 47.0796 29.9601 47.0796 33.0665C47.0796 36.1729 49.5978 38.6911 52.7042 38.6911Z" fill="white"/>
<path d="M13.787 32.8481H19.6009V38.6891H13.787V32.8481Z" fill="white"/>
<path d="M17.2243 33.0653C17.2243 34.8574 15.7715 36.3102 13.9793 36.3102C12.1872 36.3102 10.7344 34.8574 10.7344 33.0653C10.7344 31.2731 12.1872 29.8203 13.9793 29.8203C15.7715 29.8203 17.2243 31.2731 17.2243 33.0653Z" fill="#FF0000"/>
<path d="M13.8707 32.9399H17.2249V36.3097H13.8707V32.9399Z" fill="#FF0000"/>
<path d="M32.314 27.4419H34.6936V38.4747H32.314V27.4419Z" fill="white"/>
<path d="M31.5015 29.8203L31.5015 27.4407L34.6995 27.4407L34.6995 29.8203L31.5015 29.8203Z" fill="white"/>
<path d="M19.3931 27.4404H30.6422L28.0568 36.4032C27.6662 37.7573 26.4269 38.6896 25.0177 38.6896C23.6084 38.6896 22.3691 37.7573 21.9785 36.4032L19.3931 27.4404Z" fill="white"/>
<path d="M21.8003 27.2788H28.3172L25.653 35.7908C25.5562 36.1001 25.2697 36.3106 24.9456 36.3106C24.6149 36.3106 24.3241 36.0914 24.233 35.7734L21.8003 27.2788Z" fill="#FF0000"/>
</svg>
