<svg width="40" height="33" viewBox="0 0 40 33" fill="none" xmlns="http://www.w3.org/2000/svg">
<path d="M29.3299 14.2632L24.1684 13.5613V5.74969C24.1684 3.89467 22.4282 2.3855 20.2892 2.3855H20.2311C18.0921 2.3855 16.3518 3.89467 16.3518 5.74969V18.2949L11.0158 16.3116C9.94362 15.9131 8.72219 16.0077 7.74842 16.5646C6.77464 17.1214 6.19336 18.0579 6.19336 19.0694V19.1116C6.19336 19.9676 6.61642 20.7848 7.35405 21.3536L16.352 28.2923V31.6634C16.352 32.1452 16.8023 32.5355 17.3577 32.5355C17.9131 32.5355 18.3633 32.1452 18.3633 31.6634V27.9008C18.3633 27.6517 18.2405 27.4145 18.026 27.2491L8.69067 20.0502C8.38186 19.8121 8.20473 19.4701 8.20473 19.1117V19.0695C8.20473 18.6398 8.44207 18.2576 8.85561 18.0209C9.26928 17.7844 9.76796 17.7457 10.2235 17.915L16.9612 20.4191C17.023 20.4421 17.0877 20.4601 17.1552 20.4721C17.2556 20.4902 17.357 20.494 17.4561 20.4855C17.4702 20.4843 17.4838 20.482 17.4978 20.4804C17.5158 20.4782 17.5337 20.4763 17.5516 20.4732C17.5719 20.4698 17.5917 20.4651 17.6115 20.4606C17.6225 20.4582 17.6338 20.456 17.6446 20.4533C17.6665 20.4476 17.6877 20.4408 17.709 20.434C17.718 20.4311 17.7271 20.4285 17.7359 20.4254C17.7564 20.4182 17.7764 20.4099 17.7961 20.4015C17.8057 20.3976 17.8153 20.3939 17.8247 20.3896C17.8424 20.3815 17.8594 20.3726 17.8766 20.3636C17.8877 20.3578 17.899 20.3522 17.9099 20.3461C17.9241 20.3379 17.9377 20.3291 17.9514 20.3204C17.9643 20.3122 17.9773 20.3042 17.9898 20.2955C18.001 20.2876 18.0116 20.2791 18.0224 20.2708C18.0362 20.2604 18.05 20.2499 18.0631 20.2387C18.0726 20.2306 18.0814 20.222 18.0905 20.2135C18.1035 20.2014 18.1168 20.1895 18.129 20.1768C18.1387 20.1668 18.1475 20.1561 18.1567 20.1456C18.167 20.1338 18.1776 20.1224 18.1873 20.1101C18.1995 20.0947 18.2105 20.0785 18.2215 20.0623C18.227 20.0543 18.2329 20.0467 18.2381 20.0385C18.2864 19.9628 18.3223 19.8802 18.3428 19.7928C18.3568 19.7343 18.3632 19.6753 18.3632 19.6169V5.74969C18.3632 4.85649 19.2011 4.12981 20.2311 4.12981H20.2892C21.3191 4.12981 22.1571 4.85649 22.1571 5.74969V14.1253C22.1571 14.1575 22.1593 14.1891 22.1634 14.2204C22.1103 14.6779 22.477 15.0969 23.0071 15.1688L29.0251 15.9872C29.0298 15.9879 29.0346 15.9884 29.0393 15.9891C32.6796 16.4377 35.4248 19.1805 35.4248 22.3694V22.4584C35.4248 23.9342 35.0096 25.4063 34.2239 26.7152L31.4958 31.2607C31.2393 31.688 31.4309 32.2146 31.9236 32.4369C32.0719 32.5039 32.2307 32.5358 32.3871 32.5358C32.7503 32.5358 33.1009 32.3646 33.2801 32.0661L36.0081 27.5206C36.9425 25.9639 37.4362 24.2134 37.4362 22.4584V22.3694C37.4362 20.3974 36.6153 18.4911 35.1249 17.0018C33.6361 15.5142 31.5783 14.5418 29.3299 14.2632Z" fill="white"/>
<path d="M7.73411 10.4176C7.88819 10.4176 8.04293 10.3869 8.18573 10.3247C8.52539 10.1766 8.73966 9.87509 8.73966 9.54541V6.08087H13.1155C13.6709 6.08087 14.1211 5.69049 14.1211 5.20871C14.1211 4.72693 13.6709 4.33656 13.1155 4.33656H8.73966V0.872126C8.73966 0.542451 8.52525 0.240918 8.18573 0.0928845C7.84608 -0.0551492 7.43925 -0.0244494 7.13419 0.172192L0.40576 4.50866C0.15045 4.67321 0 4.93288 0 5.20871C0 5.48454 0.15045 5.7441 0.40576 5.90876L7.13406 10.2455C7.31092 10.3593 7.52185 10.4176 7.73411 10.4176ZM6.7283 7.81052L2.69161 5.20871L6.7283 2.60702V7.81052Z" fill="white"/>
<path d="M39.5938 4.50861L32.8654 0.172022C32.5605 -0.0243868 32.1535 -0.0550867 31.8138 0.0927145C31.4742 0.240748 31.2599 0.542281 31.2599 0.871956V4.3365H26.8841C26.3287 4.3365 25.8784 4.72688 25.8784 5.20866C25.8784 5.69044 26.3287 6.08081 26.8841 6.08081H31.2599V9.54536C31.2599 9.87503 31.4743 10.1766 31.8138 10.3246C31.9566 10.3868 32.1114 10.4175 32.2655 10.4175C32.4777 10.4175 32.6886 10.3593 32.8655 10.2454L39.5939 5.90871C39.8492 5.74416 39.9997 5.48461 39.9997 5.20866C39.9997 4.93271 39.8493 4.67315 39.5938 4.50861ZM33.2713 7.81047V2.60685L37.308 5.20866L33.2713 7.81047Z" fill="white"/>
</svg>
