<svg width="20" height="21" viewBox="0 0 20 21" fill="none" xmlns="http://www.w3.org/2000/svg">
<path d="M10.0005 7.375C10.6908 7.375 11.2505 6.81536 11.2505 6.125C11.2505 5.43464 10.6908 4.875 10.0005 4.875C9.31013 4.875 8.75049 5.43464 8.75049 6.125C8.75049 6.81536 9.31013 7.375 10.0005 7.375Z" fill="white"/>
<path d="M10.0005 8.62503C9.66897 8.62503 9.35103 8.7421 9.11661 8.95047C8.88218 9.15884 8.75049 9.44146 8.75049 9.73615V14.8751C8.75049 15.1697 8.88218 15.4524 9.11661 15.6607C9.35103 15.8691 9.66897 15.9862 10.0005 15.9862C10.332 15.9862 10.65 15.8691 10.8844 15.6607C11.1188 15.4524 11.2505 15.1697 11.2505 14.8751V9.73615C11.2505 9.44146 11.1188 9.15884 10.8844 8.95047C10.65 8.7421 10.332 8.62503 10.0005 8.62503Z" fill="white"/>
<circle cx="10" cy="10.5" r="9.5" stroke="white"/>
</svg>
