<svg width="46" height="33" viewBox="0 0 46 33" fill="none" xmlns="http://www.w3.org/2000/svg">
<path d="M18.3688 23.5377L30.2504 16.6698L18.3688 9.80181V23.5377ZM44.8333 5.61235C45.131 6.68833 45.337 8.13061 45.4744 9.96206C45.6346 11.7935 45.7033 13.3731 45.7033 14.7467L45.8407 16.6698C45.8407 21.6834 45.4744 25.3692 44.8333 27.7272C44.261 29.7876 42.9332 31.1154 40.8728 31.6877C39.7968 31.9853 37.828 32.1914 34.8061 32.3287C31.83 32.489 29.1057 32.5576 26.5875 32.5576L22.9475 32.695C13.3552 32.695 7.38008 32.3287 5.02208 31.6877C2.9617 31.1154 1.63389 29.7876 1.06156 27.7272C0.763949 26.6512 0.557911 25.2089 0.420552 23.3775C0.260299 21.546 0.191619 19.9664 0.191619 18.5928L0.0542603 16.6698C0.0542603 11.6562 0.420552 7.97035 1.06156 5.61235C1.63389 3.55197 2.9617 2.22416 5.02208 1.65183C6.09806 1.35422 8.06688 1.14818 11.0888 1.01082C14.0649 0.85057 16.7892 0.78189 19.3074 0.78189L22.9475 0.644531C32.5397 0.644531 38.5148 1.01082 40.8728 1.65183C42.9332 2.22416 44.261 3.55197 44.8333 5.61235Z" fill="#2DC574"/>
</svg>
