<svg width="161" height="51" viewBox="0 0 161 51" fill="none" xmlns="http://www.w3.org/2000/svg">
<path fill-rule="evenodd" clip-rule="evenodd" d="M11.1749 0.000165749H26.4361H129.081V0C129.25 0 129.421 0 129.591 0.000165749H148.825V0C149.262 0 149.706 0 150.144 0.00254999C150.446 0.00457937 150.755 0.00993017 151.06 0.0152118C151.129 0.0164008 151.197 0.0175864 151.265 0.0187297C152.081 0.0282256 152.894 0.103571 153.698 0.244098C154.506 0.388071 155.288 0.657512 156.02 1.04352C157.483 1.83109 158.674 3.07953 159.425 4.61325C159.792 5.37747 160.046 6.19573 160.178 7.03998C160.314 7.88377 160.389 8.73698 160.404 9.59252C160.409 9.98349 160.409 10.3757 160.409 10.7667C160.418 11.2286 160.418 11.6918 160.418 12.1587V38.8427C160.418 39.3134 160.418 39.774 160.409 40.2373C160.409 40.6331 160.409 41.0167 160.404 41.4127C160.389 42.2682 160.314 43.1213 160.178 43.9651C160.046 44.8098 159.792 45.6286 159.425 46.3931C159.052 47.1539 158.567 47.8485 157.987 48.4513C157.413 49.0593 156.748 49.5667 156.02 49.9541C155.288 50.3412 154.506 50.6122 153.698 50.7584C152.894 50.8978 152.081 50.9731 151.265 50.9838C150.895 50.9925 150.514 50.9975 150.144 50.9975C149.706 51 149.262 51 148.825 51H129.081H26.4361H11.1749C10.7451 51 10.3205 51 9.89185 50.9975C9.53304 50.9975 9.17708 50.9925 8.81482 50.9838C8.02787 50.9725 7.2428 50.8972 6.46619 50.7584C5.69072 50.6132 4.93971 50.3421 4.23831 49.9541C3.53607 49.5669 2.89555 49.0595 2.34121 48.4513C1.78174 47.8508 1.3154 47.1558 0.960301 46.3931C0.603721 45.6291 0.35669 44.8103 0.227784 43.9651C0.097294 43.1215 0.0270748 42.2681 0.0177562 41.4127C0.0103255 41.1421 0.0074353 40.8774 0.00452222 40.6106C0.00317141 40.4868 0.00181567 40.3627 0 40.2373V10.7667C0.00183718 10.6413 0.00320347 10.5159 0.00457024 10.3904C0.00746719 10.1244 0.0103663 9.85818 0.0177562 9.59257C0.0270719 8.7371 0.0972911 7.8837 0.227784 7.04003C0.357047 6.19529 0.604063 5.37696 0.960301 4.61331C1.31556 3.84812 1.78184 3.15022 2.34121 2.54642C2.89766 1.94092 3.53776 1.43386 4.23831 1.04364C4.93971 0.656681 5.69081 0.387169 6.46619 0.244213C7.24267 0.104303 8.02782 0.028983 8.81482 0.0189082C8.89002 0.0176138 8.96496 0.0162689 9.03971 0.0149274C9.325 0.00980707 9.60753 0.00473634 9.89185 0.00271574C10.3205 0.00016575 10.7451 0.000165749 11.1749 0.000165749Z" fill="black"/>
<path fill-rule="evenodd" clip-rule="evenodd" d="M64.4165 18.7683C64.8152 18.9348 65.2428 19.017 65.6734 19.0101C66.1731 19.0187 66.6681 18.9108 67.1209 18.6945C67.5307 18.4922 67.8936 18.2028 68.1852 17.8454L67.6105 17.2685C67.3827 17.5614 67.0952 17.7998 66.7679 17.9671C66.4407 18.1345 66.0817 18.2267 65.716 18.2373C65.3884 18.2458 65.0626 18.1855 64.7587 18.0601C64.4548 17.9346 64.1793 17.7467 63.9493 17.508C63.4908 16.9929 63.2367 16.3214 63.2367 15.6249C63.2367 14.9284 63.4908 14.2569 63.9493 13.7418C64.1793 13.5031 64.4548 13.3152 64.7587 13.1898C65.0626 13.0643 65.3884 13.004 65.716 13.0125C66.0562 12.9966 66.3952 13.0645 66.7045 13.2103C67.0137 13.3561 67.2843 13.5757 67.4934 13.8507L68.0575 13.2847C67.774 12.9329 67.4157 12.6519 67.0099 12.4633C66.6041 12.2746 66.1616 12.1833 65.716 12.1962C65.2783 12.1833 64.8426 12.2627 64.4361 12.4293C64.0297 12.596 63.6611 12.8464 63.3532 13.1649C62.7391 13.8213 62.3964 14.6947 62.3964 15.6031C62.3964 16.5116 62.7391 17.385 63.3532 18.0414C63.6561 18.3545 64.0178 18.6018 64.4165 18.7683ZM97.474 18.0198C97.1666 18.3344 96.8016 18.584 96.3998 18.7543C95.998 18.9246 95.5674 19.0122 95.1325 19.0122C94.6976 19.0122 94.267 18.9246 93.8652 18.7543C93.4634 18.584 93.0984 18.3344 92.791 18.0198C92.1822 17.3694 91.8423 16.5037 91.8423 15.6033C91.8423 14.7029 92.1822 13.8372 92.791 13.1869C93.0975 12.8726 93.4616 12.6232 93.8625 12.453C94.2634 12.2829 94.6931 12.1953 95.1272 12.1953C95.5612 12.1953 95.991 12.2829 96.3918 12.453C96.7927 12.6232 97.1568 12.8726 97.4633 13.1869C98.0674 13.8398 98.404 14.7045 98.404 15.6033C98.404 16.5022 98.0674 17.3669 97.4633 18.0198H97.474ZM93.3977 17.4755C93.6208 17.7153 93.8902 17.905 94.1889 18.0324C94.4876 18.1598 94.8089 18.2222 95.1325 18.2157C95.4558 18.2203 95.7766 18.1569 96.075 18.0296C96.3734 17.9023 96.643 17.7137 96.8673 17.4755C97.3198 16.9617 97.5702 16.2948 97.5702 15.6033C97.5702 14.9118 97.3198 14.2449 96.8673 13.7311C96.643 13.4929 96.3734 13.3043 96.075 13.177C95.7766 13.0497 95.4558 12.9863 95.1325 12.9909C94.8089 12.9844 94.4876 13.0468 94.1889 13.1742C93.8902 13.3017 93.6208 13.4913 93.3977 13.7311C92.9384 14.2415 92.6836 14.9097 92.6836 15.6033C92.6836 16.2969 92.9384 16.9651 93.3977 17.4755ZM101.764 18.8683V12.3374H104.074C104.553 12.3325 105.016 12.5111 105.372 12.8381C105.55 12.9959 105.692 13.1918 105.787 13.4119C105.883 13.632 105.93 13.8708 105.926 14.1116C105.928 14.4048 105.847 14.6924 105.692 14.9389C105.534 15.1726 105.317 15.3572 105.064 15.4722C105.371 15.5797 105.641 15.7764 105.841 16.0382C106.036 16.305 106.141 16.63 106.139 16.9635C106.144 17.2144 106.095 17.4635 105.996 17.693C105.897 17.9225 105.749 18.1268 105.564 18.2914C105.194 18.643 104.706 18.8342 104.202 18.8248L101.764 18.8683ZM102.584 15.1348H104.074C104.213 15.143 104.353 15.1189 104.482 15.0643C104.611 15.0096 104.726 14.9258 104.819 14.8191C104.999 14.6383 105.103 14.3918 105.106 14.1334C105.116 13.8742 105.029 13.6209 104.861 13.4259C104.772 13.3244 104.662 13.2444 104.538 13.1917C104.415 13.139 104.282 13.1149 104.148 13.1211H102.616L102.584 15.1348ZM102.584 18.0628H104.244C104.388 18.0678 104.532 18.0401 104.664 17.9818C104.797 17.9234 104.915 17.8359 105.01 17.7254C105.194 17.5247 105.297 17.2602 105.298 16.9852C105.291 16.7125 105.185 16.4523 105 16.2559C104.897 16.1458 104.773 16.0588 104.636 16.0007C104.498 15.9426 104.35 15.9146 104.202 15.9185H102.584V18.0628ZM85.9481 12.3378V18.8687H86.7676V15.9189H89.9605V18.8687H90.7907V12.3378H89.9605V15.1352H86.7676V12.3378H85.9481ZM79.8706 18.8687V12.3378H84.4896V18.8687H83.6701V13.1433H80.6901V18.8687H79.8706ZM76.5305 17.8455L78.9465 12.3378H77.978L76.4241 16.0822L74.849 12.3378H73.8804L76.009 17.1598L75.7749 17.6823C75.7158 17.8433 75.6168 17.9859 75.4875 18.0959C75.3541 18.1819 75.198 18.2237 75.0405 18.2156C74.8912 18.2118 74.745 18.1707 74.6148 18.0959L74.4019 18.8687C74.6056 18.9635 74.8269 19.0118 75.0507 19.0104C75.2744 19.009 75.4951 18.9579 75.6976 18.8606C75.9001 18.7632 76.0795 18.622 76.2233 18.4468C76.3671 18.2715 76.4719 18.0664 76.5305 17.8455ZM71.527 18.8687H70.7075V13.1433H68.9194V12.3378H73.3044V13.1433H71.527V18.8687ZM60.5974 18.0198C60.2909 18.3341 59.9268 18.5834 59.526 18.7536C59.1251 18.9237 58.6953 19.0113 58.2613 19.0113C57.8273 19.0113 57.3975 18.9237 56.9966 18.7536C56.5957 18.5834 56.2316 18.3341 55.9251 18.0198C55.3163 17.3694 54.9764 16.5037 54.9764 15.6033C54.9764 14.7029 55.3163 13.8372 55.9251 13.1869C56.2316 12.8726 56.5957 12.6232 56.9966 12.453C57.3975 12.2829 57.8273 12.1953 58.2613 12.1953C58.6953 12.1953 59.1251 12.2829 59.526 12.453C59.9268 12.6232 60.2909 12.8726 60.5974 13.1869C60.9049 13.5047 61.1471 13.8822 61.3098 14.2972C61.4724 14.7122 61.5523 15.1563 61.5447 15.6033C61.5572 16.051 61.4796 16.4965 61.3167 16.9123C61.1537 17.328 60.9089 17.7049 60.5974 18.0198ZM56.5212 17.4755C56.7454 17.7137 57.0151 17.9023 57.3135 18.0296C57.6119 18.1569 57.9327 18.2203 58.256 18.2157C58.5795 18.2222 58.9009 18.1598 59.1996 18.0324C59.4982 17.905 59.7677 17.7153 59.9908 17.4755C60.45 16.9651 60.7049 16.2969 60.7049 15.6033C60.7049 14.9097 60.45 14.2415 59.9908 13.7311C59.7677 13.4913 59.4982 13.3017 59.1996 13.1742C58.9009 13.0468 58.5795 12.9844 58.256 12.9909C57.9327 12.9863 57.6119 13.0497 57.3135 13.177C57.0151 13.3043 56.7454 13.4929 56.5212 13.7311C56.0687 14.2449 55.8183 14.9118 55.8183 15.6033C55.8183 16.2948 56.0687 16.9617 56.5212 17.4755ZM47.7927 19.5599H48.5697V18.8687H53.4122V19.5545H54.1998V18.0632H53.4867V12.3378H49.2295V15.6032C49.2829 16.0481 49.2411 16.4995 49.1069 16.9261C48.9728 17.3528 48.7495 17.7445 48.4526 18.0741H47.7927V19.5599ZM49.4424 18.0959C49.8851 17.3463 50.0965 16.4776 50.0491 15.6032V13.1433H52.6353V18.0959H49.4424Z" fill="white"/>
<path d="M65.6734 19.0101L65.677 18.8044L65.6701 18.8045L65.6734 19.0101ZM64.4165 18.7683L64.4958 18.5785V18.5785L64.4165 18.7683ZM67.1209 18.6945L67.2095 18.88L67.2119 18.8789L67.1209 18.6945ZM68.1852 17.8454L68.3445 17.9754L68.4618 17.8317L68.3309 17.7003L68.1852 17.8454ZM67.6105 17.2685L67.7561 17.1234L67.5914 16.958L67.4481 17.1423L67.6105 17.2685ZM66.7679 17.9671L66.6743 17.784L66.7679 17.9671ZM65.716 18.2373L65.7214 18.4429L65.722 18.4429L65.716 18.2373ZM63.9493 17.508L63.7955 17.6448L63.8012 17.6507L63.9493 17.508ZM63.9493 13.7418L63.801 13.599L63.7956 13.6051L63.9493 13.7418ZM65.716 13.0125L65.7106 13.2181L65.7181 13.2183L65.7256 13.218L65.716 13.0125ZM66.7045 13.2103L66.7922 13.0243L66.7045 13.2103ZM67.4934 13.8507L67.3297 13.9752L67.4725 14.163L67.639 13.9958L67.4934 13.8507ZM68.0575 13.2847L68.2031 13.4298L68.3333 13.2992L68.2176 13.1556L68.0575 13.2847ZM67.0099 12.4633L67.0966 12.2768L67.0099 12.4633ZM65.716 12.1962L65.7099 12.4021L65.7219 12.4017L65.716 12.1962ZM64.4361 12.4293L64.3581 12.239V12.239L64.4361 12.4293ZM63.3532 13.1649L63.2053 13.022L63.2031 13.0244L63.3532 13.1649ZM63.3532 18.0414L63.2031 18.1819L63.2054 18.1843L63.3532 18.0414ZM96.3998 18.7543L96.4801 18.9436V18.9436L96.3998 18.7543ZM97.474 18.0198L97.6211 18.1635L97.9624 17.8141H97.474V18.0198ZM93.8652 18.7543L93.7849 18.9436V18.9436L93.8652 18.7543ZM92.791 18.0198L92.6409 18.1603L92.6439 18.1635L92.791 18.0198ZM92.791 13.1869L92.6438 13.0433L92.6409 13.0463L92.791 13.1869ZM93.8625 12.453L93.7822 12.2637V12.2637L93.8625 12.453ZM96.3918 12.453L96.4722 12.2637V12.2637L96.3918 12.453ZM97.4633 13.1869L97.6143 13.0472L97.6105 13.0433L97.4633 13.1869ZM97.4633 18.0198L97.3124 17.8801L96.9929 18.2254H97.4633V18.0198ZM94.1889 18.0324L94.1082 18.2215L94.1889 18.0324ZM93.3977 17.4755L93.2448 17.6131L93.2471 17.6156L93.3977 17.4755ZM95.1325 18.2157L95.1354 18.0099L95.1283 18.0101L95.1325 18.2157ZM96.075 18.0296L95.9943 17.8405L96.075 18.0296ZM96.8673 17.4755L97.0171 17.6166L97.0216 17.6114L96.8673 17.4755ZM96.8673 13.7311L97.0217 13.5951L97.017 13.5901L96.8673 13.7311ZM95.1325 12.9909L95.1283 13.1967L95.1354 13.1966L95.1325 12.9909ZM94.1889 13.1742L94.2696 13.3634L94.1889 13.1742ZM93.3977 13.7311L93.2471 13.591L93.2448 13.5935L93.3977 13.7311ZM101.764 12.3374V12.1317H101.559V12.3374H101.764ZM101.764 18.8683H101.559V19.0777L101.768 19.0739L101.764 18.8683ZM104.074 12.3374V12.543L104.076 12.543L104.074 12.3374ZM105.372 12.8381L105.233 12.9896L105.236 12.9919L105.372 12.8381ZM105.787 13.4119L105.599 13.4939L105.599 13.4939L105.787 13.4119ZM105.926 14.1116L105.72 14.1077L105.72 14.1134L105.926 14.1116ZM105.692 14.9389L105.862 15.0537L105.866 15.0485L105.692 14.9389ZM105.064 15.4722L104.979 15.285L104.511 15.497L104.996 15.6664L105.064 15.4722ZM105.841 16.0382L106.006 15.9166L106.004 15.9135L105.841 16.0382ZM106.139 16.9635L105.933 16.962L105.933 16.9679L106.139 16.9635ZM105.996 17.693L105.807 17.6113L105.996 17.693ZM105.564 18.2914L105.427 18.1376L105.422 18.1424L105.564 18.2914ZM104.202 18.8248L104.205 18.619L104.198 18.6192L104.202 18.8248ZM104.074 15.1348L104.086 14.9291H104.074V15.1348ZM102.584 15.1348L102.378 15.1315L102.375 15.3404H102.584V15.1348ZM104.482 15.0643L104.562 15.2536V15.2536L104.482 15.0643ZM104.819 14.8191L104.673 14.6735L104.664 14.6841L104.819 14.8191ZM105.106 14.1334L104.901 14.1254L104.901 14.1305L105.106 14.1334ZM104.861 13.4259L105.018 13.292L105.016 13.2899L104.861 13.4259ZM104.148 13.1211V13.327L104.158 13.3265L104.148 13.1211ZM102.616 13.1211V12.9154H102.413L102.41 13.1178L102.616 13.1211ZM104.244 18.0628L104.251 17.8572H104.244V18.0628ZM102.584 18.0628H102.378V18.2685H102.584V18.0628ZM105.01 17.7254L104.859 17.5865L104.855 17.5909L105.01 17.7254ZM105.298 16.9852L105.503 16.9859L105.503 16.9804L105.298 16.9852ZM105 16.2559L104.849 16.3961L104.85 16.3971L105 16.2559ZM104.202 15.9185V16.1242L104.207 16.1241L104.202 15.9185ZM102.584 15.9185V15.7129H102.378V15.9185H102.584ZM85.9481 18.8687H85.7425V19.0744H85.9481V18.8687ZM85.9481 12.3378V12.1321H85.7425V12.3378H85.9481ZM86.7676 18.8687V19.0744H86.9733V18.8687H86.7676ZM86.7676 15.9189V15.7132H86.562V15.9189H86.7676ZM89.9605 15.9189H90.1662V15.7132H89.9605V15.9189ZM89.9605 18.8687H89.7549V19.0744H89.9605V18.8687ZM90.7907 18.8687V19.0744H90.9963V18.8687H90.7907ZM90.7907 12.3378H90.9963V12.1321H90.7907V12.3378ZM89.9605 12.3378V12.1321H89.7549V12.3378H89.9605ZM89.9605 15.1352V15.3408H90.1662V15.1352H89.9605ZM86.7676 15.1352H86.562V15.3408H86.7676V15.1352ZM86.7676 12.3378H86.9733V12.1321H86.7676V12.3378ZM79.8706 12.3378V12.1321H79.6649V12.3378H79.8706ZM79.8706 18.8687H79.6649V19.0744H79.8706V18.8687ZM84.4896 12.3378H84.6953V12.1321H84.4896V12.3378ZM84.4896 18.8687V19.0744H84.6953V18.8687H84.4896ZM83.6701 18.8687H83.4645V19.0744H83.6701V18.8687ZM83.6701 13.1433H83.8758V12.9376H83.6701V13.1433ZM80.6901 13.1433V12.9376H80.4844V13.1433H80.6901ZM80.6901 18.8687V19.0744H80.8957V18.8687H80.6901ZM78.9465 12.3378L79.1348 12.4204L79.2613 12.1321H78.9465V12.3378ZM76.5305 17.8455L76.3422 17.7629L76.3358 17.7774L76.3318 17.7928L76.5305 17.8455ZM77.978 12.3378V12.1321H77.8407L77.788 12.2589L77.978 12.3378ZM76.4241 16.0822L76.2346 16.1619L76.4254 16.6156L76.6141 16.161L76.4241 16.0822ZM74.849 12.3378L75.0385 12.258L74.9855 12.1321H74.849V12.3378ZM73.8804 12.3378V12.1321H73.5649L73.6923 12.4208L73.8804 12.3378ZM76.009 17.1598L76.1967 17.2439L76.2341 17.1604L76.1972 17.0767L76.009 17.1598ZM75.7749 17.6823L75.5872 17.5981L75.5843 17.6047L75.5818 17.6115L75.7749 17.6823ZM75.4875 18.0959L75.599 18.2687L75.6104 18.2613L75.6208 18.2525L75.4875 18.0959ZM75.0405 18.2156L75.0511 18.0102L75.0457 18.01L75.0405 18.2156ZM74.6148 18.0959L74.7173 17.9176L74.4871 17.7853L74.4165 18.0413L74.6148 18.0959ZM74.4019 18.8687L74.2037 18.8141L74.1575 18.9818L74.3152 19.0552L74.4019 18.8687ZM75.0507 19.0104L75.0494 18.8048L75.0507 19.0104ZM76.2233 18.4468L76.3823 18.5772L76.3823 18.5772L76.2233 18.4468ZM70.7075 18.8687H70.5018V19.0744H70.7075V18.8687ZM71.527 18.8687V19.0744H71.7326V18.8687H71.527ZM70.7075 13.1433H70.9131V12.9376H70.7075V13.1433ZM68.9194 13.1433H68.7138V13.3489H68.9194V13.1433ZM68.9194 12.3378V12.1321H68.7138V12.3378H68.9194ZM73.3044 12.3378H73.51V12.1321H73.3044V12.3378ZM73.3044 13.1433V13.3489H73.51V13.1433H73.3044ZM71.527 13.1433V12.9376H71.3213V13.1433H71.527ZM59.526 18.7536L59.6063 18.9429V18.9429L59.526 18.7536ZM60.5974 18.0198L60.4512 17.8751L60.4502 17.8762L60.5974 18.0198ZM56.9966 18.7536L56.9163 18.9429V18.9429L56.9966 18.7536ZM55.9251 18.0198L55.775 18.1603L55.7779 18.1633L55.9251 18.0198ZM55.9251 13.1869L55.7779 13.0433L55.775 13.0463L55.9251 13.1869ZM56.9966 12.453L56.9163 12.2637L56.9966 12.453ZM59.526 12.453L59.6063 12.2637L59.526 12.453ZM60.5974 13.1869L60.7452 13.0439L60.7447 13.0433L60.5974 13.1869ZM61.3098 14.2972L61.5012 14.2222V14.2222L61.3098 14.2972ZM61.5447 15.6033L61.3388 15.5998L61.3391 15.6091L61.5447 15.6033ZM61.3167 16.9123L61.5082 16.9873V16.9873L61.3167 16.9123ZM57.3135 18.0296L57.2328 18.2188L57.3135 18.0296ZM56.5212 17.4755L56.3667 17.6115L56.3714 17.6165L56.5212 17.4755ZM58.256 18.2157L58.2601 18.01L58.253 18.0101L58.256 18.2157ZM59.1996 18.0324L59.1189 17.8432L59.1996 18.0324ZM59.9908 17.4755L60.1414 17.6156L60.1437 17.6131L59.9908 17.4755ZM59.9908 13.7311L60.1437 13.5935L60.1413 13.591L59.9908 13.7311ZM59.1996 13.1742L59.2803 12.9851V12.9851L59.1996 13.1742ZM58.256 12.9909L58.253 13.1967L58.2601 13.1965L58.256 12.9909ZM57.3135 13.177L57.3942 13.3661V13.3661L57.3135 13.177ZM56.5212 13.7311L56.3713 13.5901L56.3668 13.5952L56.5212 13.7311ZM48.5697 19.5599V19.7655H48.7753V19.5599H48.5697ZM47.7927 19.5599H47.5871V19.7655H47.7927V19.5599ZM48.5697 18.8687V18.6631H48.364V18.8687H48.5697ZM53.4122 18.8687H53.6179V18.6631H53.4122V18.8687ZM53.4122 19.5545H53.2066V19.7601H53.4122V19.5545ZM54.1998 19.5545V19.7601H54.4055V19.5545H54.1998ZM54.1998 18.0632H54.4055V17.8576H54.1998V18.0632ZM53.4867 18.0632H53.2811V18.2689H53.4867V18.0632ZM53.4867 12.3378H53.6924V12.1321H53.4867V12.3378ZM49.2295 12.3378V12.1321H49.0239V12.3378H49.2295ZM49.2295 15.6032H49.0239V15.6155L49.0254 15.6277L49.2295 15.6032ZM49.1069 16.9261L49.3031 16.9878L49.1069 16.9261ZM48.4526 18.0741V18.2798H48.5441L48.6054 18.2117L48.4526 18.0741ZM47.7927 18.0741V17.8685H47.5871V18.0741H47.7927ZM50.0491 15.6032H49.8431L49.8437 15.6144L50.0491 15.6032ZM49.4424 18.0959L49.2653 17.9913L49.0821 18.3015H49.4424V18.0959ZM50.0491 13.1433V12.9376H49.8434V13.1433H50.0491ZM52.6353 13.1433H52.841V12.9376H52.6353V13.1433ZM52.6353 18.0959V18.3015H52.841V18.0959H52.6353ZM65.6701 18.8045C65.2679 18.8109 64.8684 18.7341 64.4958 18.5785L64.3373 18.9581C64.7621 19.1354 65.2177 19.2231 65.6767 19.2157L65.6701 18.8045ZM67.0322 18.5089C66.6081 18.7115 66.1446 18.8126 65.677 18.8045L65.6699 19.2157C66.2016 19.2249 66.7281 19.11 67.2095 18.88L67.0322 18.5089ZM68.0258 17.7154C67.7527 18.0502 67.4131 18.321 67.0299 18.51L67.2119 18.8789C67.6484 18.6635 68.0345 18.3554 68.3445 17.9754L68.0258 17.7154ZM67.4648 17.4137L68.0395 17.9906L68.3309 17.7003L67.7561 17.1234L67.4648 17.4137ZM66.8616 18.1502C67.2158 17.9691 67.5268 17.7111 67.7728 17.3948L67.4481 17.1423C67.2387 17.4116 66.9745 17.6305 66.6743 17.784L66.8616 18.1502ZM65.722 18.4429C66.1183 18.4313 66.5073 18.3314 66.8616 18.1502L66.6743 17.784C66.3741 17.9375 66.0451 18.022 65.71 18.0317L65.722 18.4429ZM64.6802 18.2502C65.0106 18.3865 65.3649 18.4522 65.7214 18.4429L65.7106 18.0317C65.4118 18.0395 65.1146 17.9845 64.8371 17.87L64.6802 18.2502ZM63.8012 17.6507C64.0507 17.9097 64.3498 18.1138 64.6802 18.2502L64.8371 17.87C64.5597 17.7555 64.3078 17.5838 64.0973 17.3653L63.8012 17.6507ZM63.0311 15.6249C63.0311 16.3713 63.3033 17.0916 63.7956 17.6447L64.1029 17.3713C63.6783 16.8943 63.4424 16.2716 63.4424 15.6249H63.0311ZM63.7956 13.6051C63.3033 14.1583 63.0311 14.8785 63.0311 15.6249H63.4424C63.4424 14.9782 63.6783 14.3556 64.1029 13.8786L63.7956 13.6051ZM64.6802 12.9997C64.3498 13.136 64.0507 13.3401 63.8012 13.5991L64.0973 13.8845C64.3078 13.6661 64.5597 13.4944 64.8371 13.3798L64.6802 12.9997ZM65.7214 12.807C65.3649 12.7977 65.0106 12.8633 64.6802 12.9997L64.8371 13.3798C65.1146 13.2653 65.4118 13.2103 65.7106 13.2181L65.7214 12.807ZM66.7922 13.0243C66.4527 12.8642 66.0803 12.7896 65.7064 12.8071L65.7256 13.218C66.0321 13.2036 66.3377 13.2647 66.6168 13.3963L66.7922 13.0243ZM67.6571 13.7262C67.4282 13.4252 67.1317 13.1844 66.7922 13.0243L66.6168 13.3963C66.8958 13.5279 67.1404 13.7263 67.3297 13.9752L67.6571 13.7262ZM67.9118 13.1395L67.3477 13.7055L67.639 13.9958L68.2031 13.4298L67.9118 13.1395ZM66.9232 12.6498C67.3001 12.825 67.6334 13.0862 67.8973 13.4137L68.2176 13.1556C67.9146 12.7795 67.5312 12.4788 67.0966 12.2768L66.9232 12.6498ZM65.7219 12.4017C66.1354 12.3898 66.5463 12.4745 66.9232 12.6498L67.0966 12.2768C66.6619 12.0747 66.1877 11.9768 65.71 11.9906L65.7219 12.4017ZM64.5142 12.6196C64.8941 12.4638 65.3011 12.3897 65.71 12.4017L65.722 11.9906C65.2554 11.9769 64.7912 12.0615 64.3581 12.239L64.5142 12.6196ZM63.5011 13.3078C63.7894 13.0096 64.1342 12.7754 64.5142 12.6196L64.3581 12.239C63.9251 12.4166 63.5328 12.6832 63.2054 13.022L63.5011 13.3078ZM62.602 15.6031C62.602 14.7463 62.9254 13.9232 63.5034 13.3054L63.2031 13.0244C62.5529 13.7193 62.1907 14.6431 62.1907 15.6031H62.602ZM63.5034 17.9009C62.9254 17.283 62.602 16.46 62.602 15.6031H62.1907C62.1907 16.5631 62.5529 17.487 63.2031 18.1819L63.5034 17.9009ZM64.4958 18.5785C64.123 18.4229 63.7847 18.1916 63.5011 17.8984L63.2054 18.1843C63.5276 18.5174 63.9125 18.7807 64.3373 18.9581L64.4958 18.5785ZM96.4801 18.9436C96.9071 18.7626 97.2948 18.4974 97.6211 18.1635L97.3269 17.876C97.0383 18.1714 96.696 18.4054 96.3195 18.5649L96.4801 18.9436ZM95.1325 19.2179C95.5951 19.2179 96.053 19.1247 96.4801 18.9436L96.3195 18.5649C95.9431 18.7245 95.5397 18.8066 95.1325 18.8066V19.2179ZM93.7849 18.9436C94.212 19.1247 94.6699 19.2179 95.1325 19.2179V18.8066C94.7253 18.8066 94.3219 18.7245 93.9454 18.5649L93.7849 18.9436ZM92.6439 18.1635C92.9702 18.4974 93.3579 18.7626 93.7849 18.9436L93.9454 18.5649C93.569 18.4054 93.2267 18.1714 92.9381 17.876L92.6439 18.1635ZM91.6366 15.6033C91.6366 16.5553 91.9959 17.4714 92.6409 18.1603L92.9412 17.8792C92.3684 17.2674 92.0479 16.4521 92.0479 15.6033H91.6366ZM92.6409 13.0463C91.9959 13.7352 91.6366 14.6513 91.6366 15.6033H92.0479C92.0479 14.7545 92.3684 13.9392 92.9412 13.3274L92.6409 13.0463ZM93.7822 12.2637C93.356 12.4446 92.9692 12.7096 92.6438 13.0433L92.9383 13.3304C93.2259 13.0355 93.5673 12.8018 93.9429 12.6423L93.7822 12.2637ZM95.1272 11.9897C94.6654 11.9897 94.2084 12.0828 93.7822 12.2637L93.9429 12.6423C94.3184 12.483 94.7209 12.401 95.1272 12.401V11.9897ZM96.4722 12.2637C96.046 12.0828 95.5889 11.9897 95.1272 11.9897V12.401C95.5335 12.401 95.9359 12.483 96.3115 12.6423L96.4722 12.2637ZM97.6105 13.0433C97.2852 12.7096 96.8984 12.4446 96.4722 12.2637L96.3115 12.6423C96.687 12.8018 97.0285 13.0355 97.3161 13.3304L97.6105 13.0433ZM98.6096 15.6033C98.6096 14.6533 98.2539 13.7385 97.6143 13.0472L97.3124 13.3265C97.8808 13.941 98.1983 14.7556 98.1983 15.6033H98.6096ZM97.6143 18.1594C98.2539 17.4681 98.6096 16.5533 98.6096 15.6033H98.1983C98.1983 16.451 97.8808 17.2657 97.3124 17.8801L97.6143 18.1594ZM97.474 17.8141H97.4633V18.2254H97.474V17.8141ZM94.2696 17.8432C93.9976 17.7272 93.7519 17.5543 93.5483 17.3354L93.2471 17.6156C93.4896 17.8763 93.7828 18.0827 94.1082 18.2215L94.2696 17.8432ZM95.1283 18.0101C94.834 18.016 94.5416 17.9593 94.2696 17.8432L94.1082 18.2215C94.4336 18.3604 94.7839 18.4284 95.1367 18.4213L95.1283 18.0101ZM95.9943 17.8405C95.7222 17.9566 95.4299 18.0142 95.1354 18.0101L95.1296 18.4213C95.4817 18.4263 95.8309 18.3573 96.1557 18.2188L95.9943 17.8405ZM96.7176 17.3345C96.5126 17.5523 96.2664 17.7244 95.9943 17.8405L96.1557 18.2188C96.4804 18.0802 96.7735 17.8752 97.017 17.6165L96.7176 17.3345ZM97.3645 15.6033C97.3645 16.2453 97.132 16.8638 96.713 17.3396L97.0216 17.6114C97.5076 17.0597 97.7758 16.3443 97.7758 15.6033H97.3645ZM96.713 13.867C97.132 14.3428 97.3645 14.9613 97.3645 15.6033H97.7758C97.7758 14.8624 97.5076 14.1469 97.0216 13.5952L96.713 13.867ZM95.9943 13.3661C96.2664 13.4822 96.5126 13.6543 96.7176 13.8721L97.017 13.5901C96.7735 13.3315 96.4804 13.1264 96.1557 12.9878L95.9943 13.3661ZM95.1354 13.1966C95.4299 13.1924 95.7222 13.2501 95.9943 13.3661L96.1557 12.9878C95.8309 12.8493 95.4817 12.7803 95.1296 12.7853L95.1354 13.1966ZM94.2696 13.3634C94.5416 13.2474 94.834 13.1906 95.1283 13.1965L95.1367 12.7853C94.7839 12.7782 94.4336 12.8462 94.1082 12.9851L94.2696 13.3634ZM93.5483 13.8712C93.7519 13.6523 93.9976 13.4794 94.2696 13.3634L94.1082 12.9851C93.7828 13.1239 93.4896 13.3304 93.2471 13.591L93.5483 13.8712ZM92.8892 15.6033C92.8892 14.9599 93.1257 14.3408 93.5506 13.8687L93.2448 13.5935C92.7512 14.1421 92.4779 14.8595 92.4779 15.6033H92.8892ZM93.5506 17.338C93.1257 16.8658 92.8892 16.2467 92.8892 15.6033H92.4779C92.4779 16.3471 92.7512 17.0645 93.2448 17.6131L93.5506 17.338ZM101.559 12.3374V18.8683H101.97V12.3374H101.559ZM104.074 12.1317H101.764V12.543H104.074V12.1317ZM105.511 12.6865C105.117 12.3247 104.603 12.1263 104.072 12.1317L104.076 12.543C104.502 12.5386 104.915 12.6975 105.233 12.9896L105.511 12.6865ZM105.976 13.3299C105.869 13.0827 105.709 12.8622 105.509 12.6843L105.236 12.9919C105.391 13.1297 105.515 13.301 105.599 13.4939L105.976 13.3299ZM106.131 14.1156C106.136 13.8454 106.084 13.5772 105.976 13.3299L105.599 13.4939C105.683 13.6867 105.724 13.8963 105.72 14.1077L106.131 14.1156ZM105.866 15.0485C106.042 14.7685 106.134 14.4422 106.131 14.1098L105.72 14.1134C105.722 14.3675 105.652 14.6163 105.518 14.8292L105.866 15.0485ZM105.149 15.6595C105.437 15.5285 105.684 15.3186 105.862 15.0536L105.521 14.8241C105.385 15.0266 105.197 15.1859 104.979 15.285L105.149 15.6595ZM106.004 15.9135C105.78 15.6201 105.477 15.399 105.131 15.2781L104.996 15.6664C105.265 15.7604 105.501 15.9327 105.677 16.1629L106.004 15.9135ZM106.344 16.9649C106.347 16.5876 106.228 16.2194 106.006 15.9166L105.675 16.1599C105.844 16.3906 105.935 16.6724 105.933 16.962L106.344 16.9649ZM106.185 17.7747C106.296 17.5179 106.35 17.2394 106.344 16.959L105.933 16.9679C105.938 17.1894 105.895 17.4091 105.807 17.6113L106.185 17.7747ZM105.7 18.4452C105.908 18.2604 106.074 18.0315 106.185 17.7747L105.807 17.6113C105.72 17.8135 105.59 17.9932 105.427 18.1377L105.7 18.4452ZM104.198 19.0304C104.757 19.0408 105.297 18.8288 105.706 18.4404L105.422 18.1424C105.091 18.4571 104.655 18.6275 104.205 18.6192L104.198 19.0304ZM101.768 19.0739L104.205 19.0304L104.198 18.6192L101.761 18.6627L101.768 19.0739ZM104.074 14.9291H102.584V15.3404H104.074V14.9291ZM104.401 14.8749C104.301 14.9173 104.194 14.9359 104.086 14.9295L104.062 15.3401C104.233 15.3502 104.404 15.3206 104.562 15.2536L104.401 14.8749ZM104.664 14.6841C104.591 14.7674 104.501 14.8326 104.401 14.8749L104.562 15.2536C104.72 15.1867 104.861 15.0842 104.974 14.9542L104.664 14.6841ZM104.901 14.1305C104.898 14.3361 104.815 14.5313 104.673 14.6739L104.964 14.9644C105.183 14.7452 105.307 14.4474 105.312 14.1362L104.901 14.1305ZM104.705 13.5597C104.838 13.715 104.909 13.9175 104.901 14.1254L105.312 14.1414C105.324 13.8309 105.219 13.5268 105.018 13.292L104.705 13.5597ZM104.457 13.3808C104.552 13.4213 104.638 13.4831 104.707 13.5618L105.016 13.2899C104.906 13.1656 104.771 13.0674 104.619 13.0026L104.457 13.3808ZM104.158 13.3265C104.26 13.3218 104.363 13.3402 104.457 13.3808L104.619 13.0026C104.467 12.9377 104.303 12.908 104.139 12.9157L104.158 13.3265ZM102.616 13.3267H104.148V12.9154H102.616V13.3267ZM102.789 15.1381L102.821 13.1244L102.41 13.1178L102.378 15.1315L102.789 15.1381ZM104.244 17.8572H102.584V18.2685H104.244V17.8572ZM104.581 17.7936C104.477 17.8395 104.364 17.8612 104.251 17.8573L104.237 18.2684C104.412 18.2744 104.586 18.2407 104.747 18.17L104.581 17.7936ZM104.855 17.5909C104.779 17.6785 104.686 17.7476 104.581 17.7936L104.747 18.17C104.908 18.0992 105.051 17.9933 105.166 17.8599L104.855 17.5909ZM105.092 16.9845C105.091 17.209 105.008 17.424 104.859 17.5865L105.162 17.8643C105.381 17.6254 105.502 17.3115 105.503 16.9859L105.092 16.9845ZM104.85 16.3971C105 16.556 105.087 16.7676 105.092 16.9901L105.503 16.9804C105.496 16.6575 105.37 16.3485 105.149 16.1148L104.85 16.3971ZM104.556 16.1901C104.666 16.2369 104.766 16.3069 104.849 16.3961L105.15 16.1158C105.028 15.9846 104.88 15.8808 104.716 15.8113L104.556 16.1901ZM104.207 16.1241C104.326 16.1209 104.445 16.1434 104.556 16.1901L104.716 15.8113C104.551 15.7418 104.374 15.7082 104.196 15.7129L104.207 16.1241ZM102.584 16.1242H104.202V15.7129H102.584V16.1242ZM102.789 18.0628V15.9185H102.378V18.0628H102.789ZM86.1538 18.8687V12.3378H85.7425V18.8687H86.1538ZM86.7676 18.6631H85.9481V19.0744H86.7676V18.6631ZM86.562 15.9189V18.8687H86.9733V15.9189H86.562ZM89.9605 15.7132H86.7676V16.1246H89.9605V15.7132ZM90.1662 18.8687V15.9189H89.7549V18.8687H90.1662ZM90.7907 18.6631H89.9605V19.0744H90.7907V18.6631ZM90.585 12.3378V18.8687H90.9963V12.3378H90.585ZM89.9605 12.5434H90.7907V12.1321H89.9605V12.5434ZM90.1662 15.1352V12.3378H89.7549V15.1352H90.1662ZM86.7676 15.3408H89.9605V14.9295H86.7676V15.3408ZM86.562 12.3378V15.1352H86.9733V12.3378H86.562ZM85.9481 12.5434H86.7676V12.1321H85.9481V12.5434ZM79.6649 12.3378V18.8687H80.0762V12.3378H79.6649ZM84.4896 12.1321H79.8706V12.5434H84.4896V12.1321ZM84.6953 18.8687V12.3378H84.284V18.8687H84.6953ZM83.6701 19.0744H84.4896V18.6631H83.6701V19.0744ZM83.4645 13.1433V18.8687H83.8758V13.1433H83.4645ZM80.6901 13.3489H83.6701V12.9376H80.6901V13.3489ZM80.8957 18.8687V13.1433H80.4844V18.8687H80.8957ZM79.8706 19.0744H80.6901V18.6631H79.8706V19.0744ZM78.7582 12.2552L76.3422 17.7629L76.7189 17.9281L79.1348 12.4204L78.7582 12.2552ZM77.978 12.5434H78.9465V12.1321H77.978V12.5434ZM76.6141 16.161L78.1679 12.4166L77.788 12.2589L76.2342 16.0033L76.6141 16.161ZM74.6594 12.4175L76.2346 16.1619L76.6137 16.0024L75.0385 12.258L74.6594 12.4175ZM73.8804 12.5434H74.849V12.1321H73.8804V12.5434ZM76.1972 17.0767L74.0686 12.2547L73.6923 12.4208L75.8209 17.2428L76.1972 17.0767ZM75.9626 17.7664L76.1967 17.2439L75.8214 17.0757L75.5872 17.5981L75.9626 17.7664ZM75.6208 18.2525C75.7774 18.1192 75.8969 17.947 75.968 17.753L75.5818 17.6115C75.5348 17.7396 75.4562 17.8525 75.3542 17.9393L75.6208 18.2525ZM75.03 18.421C75.2308 18.4313 75.4296 18.3779 75.599 18.2687L75.3761 17.923C75.2787 17.9858 75.1652 18.0161 75.0511 18.0102L75.03 18.421ZM74.5123 18.2742C74.672 18.366 74.8516 18.4165 75.0353 18.4212L75.0457 18.01C74.9308 18.0071 74.818 17.9755 74.7173 17.9176L74.5123 18.2742ZM74.6002 18.9233L74.8131 18.1505L74.4165 18.0413L74.2037 18.8141L74.6002 18.9233ZM75.0494 18.8048C74.8562 18.806 74.6649 18.7643 74.4887 18.6823L74.3152 19.0552C74.5463 19.1627 74.7977 19.2177 75.0519 19.2161L75.0494 18.8048ZM75.6085 18.6752C75.4333 18.7594 75.2425 18.8036 75.0494 18.8048L75.0519 19.2161C75.3062 19.2145 75.5569 19.1564 75.7867 19.0459L75.6085 18.6752ZM76.0643 18.3163C75.9393 18.4686 75.7837 18.591 75.6085 18.6752L75.7867 19.0459C76.0165 18.9355 76.2196 18.7755 76.3823 18.5772L76.0643 18.3163ZM76.3318 17.7928C76.2807 17.9854 76.1893 18.164 76.0643 18.3163L76.3823 18.5772C76.5449 18.379 76.6632 18.1473 76.7293 17.8983L76.3318 17.7928ZM70.7075 19.0744H71.527V18.6631H70.7075V19.0744ZM70.5018 13.1433V18.8687H70.9131V13.1433H70.5018ZM68.9194 13.3489H70.7075V12.9376H68.9194V13.3489ZM68.7138 12.3378V13.1433H69.1251V12.3378H68.7138ZM73.3044 12.1321H68.9194V12.5434H73.3044V12.1321ZM73.51 13.1433V12.3378H73.0987V13.1433H73.51ZM71.527 13.3489H73.3044V12.9376H71.527V13.3489ZM71.7326 18.8687V13.1433H71.3213V18.8687H71.7326ZM59.6063 18.9429C60.0325 18.762 60.4193 18.497 60.7447 18.1633L60.4502 17.8762C60.1626 18.1711 59.8212 18.4049 59.4456 18.5643L59.6063 18.9429ZM58.2613 19.217C58.723 19.217 59.1801 19.1238 59.6063 18.9429L59.4456 18.5643C59.0701 18.7237 58.6676 18.8057 58.2613 18.8057V19.217ZM56.9163 18.9429C57.3425 19.1238 57.7996 19.217 58.2613 19.217V18.8057C57.855 18.8057 57.4525 18.7237 57.077 18.5643L56.9163 18.9429ZM55.7779 18.1633C56.1033 18.497 56.4901 18.762 56.9163 18.9429L57.077 18.5643C56.7014 18.4049 56.36 18.1711 56.0724 17.8762L55.7779 18.1633ZM54.7707 15.6033C54.7707 16.5553 55.13 17.4714 55.775 18.1603L56.0753 17.8792C55.5025 17.2674 55.182 16.4521 55.182 15.6033H54.7707ZM55.775 13.0463C55.13 13.7352 54.7707 14.6513 54.7707 15.6033H55.182C55.182 14.7545 55.5025 13.9392 56.0753 13.3274L55.775 13.0463ZM56.9163 12.2637C56.4901 12.4446 56.1033 12.7096 55.7779 13.0433L56.0724 13.3304C56.36 13.0355 56.7014 12.8018 57.077 12.6423L56.9163 12.2637ZM58.2613 11.9897C57.7996 11.9897 57.3425 12.0828 56.9163 12.2637L57.077 12.6423C57.4525 12.483 57.855 12.401 58.2613 12.401V11.9897ZM59.6063 12.2637C59.1801 12.0828 58.723 11.9897 58.2613 11.9897V12.401C58.6676 12.401 59.0701 12.483 59.4456 12.6423L59.6063 12.2637ZM60.7447 13.0433C60.4193 12.7096 60.0325 12.4446 59.6063 12.2637L59.4456 12.6423C59.8212 12.8018 60.1626 13.0355 60.4502 13.3304L60.7447 13.0433ZM61.5012 14.2222C61.3287 13.7821 61.0718 13.3814 60.7452 13.0439L60.4496 13.3298C60.738 13.628 60.9655 13.9824 61.1183 14.3723L61.5012 14.2222ZM61.7503 15.6068C61.7584 15.133 61.6737 14.6622 61.5012 14.2222L61.1183 14.3723C61.2711 14.7622 61.3462 15.1795 61.339 15.5998L61.7503 15.6068ZM61.5082 16.9873C61.6812 16.5458 61.7636 16.0727 61.7502 15.5975L61.3391 15.6091C61.3509 16.0292 61.2781 16.4473 61.1252 16.8372L61.5082 16.9873ZM60.7436 18.1644C61.0749 17.8295 61.3351 17.4288 61.5082 16.9873L61.1252 16.8372C60.9724 17.2271 60.7429 17.5803 60.4512 17.8751L60.7436 18.1644ZM57.3942 17.8405C57.1221 17.7244 56.8759 17.5523 56.6709 17.3345L56.3714 17.6165C56.615 17.8752 56.9081 18.0802 57.2328 18.2188L57.3942 17.8405ZM58.253 18.0101C57.9586 18.0142 57.6663 17.9566 57.3942 17.8405L57.2328 18.2188C57.5575 18.3573 57.9068 18.4263 58.2589 18.4213L58.253 18.0101ZM59.1189 17.8432C58.8469 17.9593 58.5545 18.016 58.2601 18.0101L58.2518 18.4213C58.6046 18.4284 58.9549 18.3604 59.2803 18.2215L59.1189 17.8432ZM59.8402 17.3354C59.6366 17.5543 59.3908 17.7272 59.1189 17.8432L59.2803 18.2215C59.6056 18.0827 59.8988 17.8763 60.1413 17.6156L59.8402 17.3354ZM60.4993 15.6033C60.4993 16.2467 60.2628 16.8658 59.8379 17.338L60.1437 17.6131C60.6372 17.0645 60.9106 16.3471 60.9106 15.6033H60.4993ZM59.8379 13.8687C60.2628 14.3408 60.4993 14.9599 60.4993 15.6033H60.9106C60.9106 14.8595 60.6372 14.1421 60.1437 13.5935L59.8379 13.8687ZM59.1189 13.3634C59.3908 13.4794 59.6366 13.6523 59.8402 13.8712L60.1413 13.591C59.8988 13.3304 59.6056 13.1239 59.2803 12.9851L59.1189 13.3634ZM58.2601 13.1965C58.5545 13.1906 58.8469 13.2474 59.1189 13.3634L59.2803 12.9851C58.9549 12.8462 58.6046 12.7782 58.2518 12.7853L58.2601 13.1965ZM57.3942 13.3661C57.6663 13.2501 57.9586 13.1924 58.253 13.1966L58.2589 12.7853C57.9068 12.7803 57.5575 12.8493 57.2328 12.9878L57.3942 13.3661ZM56.6709 13.8721C56.8759 13.6543 57.1221 13.4822 57.3942 13.3661L57.2328 12.9878C56.9081 13.1264 56.615 13.3315 56.3714 13.5901L56.6709 13.8721ZM56.0239 15.6033C56.0239 14.9613 56.2564 14.3428 56.6755 13.867L56.3668 13.5952C55.8809 14.1469 55.6126 14.8624 55.6126 15.6033H56.0239ZM56.6755 17.3396C56.2564 16.8638 56.0239 16.2453 56.0239 15.6033H55.6126C55.6126 16.3443 55.8809 17.0597 56.3668 17.6114L56.6755 17.3396ZM48.5697 19.3542H47.7927V19.7655H48.5697V19.3542ZM48.364 18.8687V19.5599H48.7753V18.8687H48.364ZM53.4122 18.6631H48.5697V19.0744H53.4122V18.6631ZM53.6179 19.5545V18.8687H53.2066V19.5545H53.6179ZM54.1998 19.3488H53.4122V19.7601H54.1998V19.3488ZM53.9942 18.0632V19.5545H54.4055V18.0632H53.9942ZM53.4867 18.2689H54.1998V17.8576H53.4867V18.2689ZM53.2811 12.3378V18.0632H53.6924V12.3378H53.2811ZM49.2295 12.5434H53.4867V12.1321H49.2295V12.5434ZM49.4352 15.6032V12.3378H49.0239V15.6032H49.4352ZM49.3031 16.9878C49.446 16.5333 49.4906 16.0525 49.4337 15.5787L49.0254 15.6277C49.0753 16.0436 49.0361 16.4657 48.9107 16.8644L49.3031 16.9878ZM48.6054 18.2117C48.9222 17.86 49.1602 17.4423 49.3031 16.9878L48.9107 16.8644C48.7853 17.2632 48.5768 17.6289 48.2998 17.9365L48.6054 18.2117ZM47.7927 18.2798H48.4526V17.8685H47.7927V18.2798ZM47.9984 19.5599V18.0741H47.5871V19.5599H47.9984ZM49.8437 15.6144C49.889 16.4485 49.6873 17.2769 49.2653 17.9913L49.6195 18.2005C50.083 17.4157 50.3041 16.5067 50.2544 15.5921L49.8437 15.6144ZM49.8434 13.1433V15.6032H50.2547V13.1433H49.8434ZM52.6353 12.9376H50.0491V13.3489H52.6353V12.9376ZM52.841 18.0959V13.1433H52.4296V18.0959H52.841ZM49.4424 18.3015H52.6353V17.8902H49.4424V18.3015Z" fill="white"/>
<path d="M32.6005 21.5385L17.5372 12.9112C17.231 12.6668 16.8491 12.5391 16.4588 12.5505C16.0684 12.5619 15.6946 12.7117 15.4029 12.9735L28.2496 25.9249L32.6005 21.5385Z" fill="url(#paint0_linear_72_204)"/>
<path d="M32.6005 30.3088L28.2496 25.9224L15.4029 38.8738C15.6943 39.1352 16.0672 39.2856 16.457 39.2989C16.8468 39.3122 17.229 39.1875 17.5372 38.9465L32.6005 30.3088Z" fill="url(#paint1_linear_72_204)"/>
<path d="M32.4761 30.3746L28.2489 26.0818V25.7699L32.4761 21.4771L32.5689 21.5394L37.6313 24.4291C39.0747 25.2502 39.0747 26.6015 37.6313 27.433L32.5896 30.3227L32.4761 30.3746Z" fill="url(#paint2_linear_72_204)"/>
<path d="M15.4034 12.9741C15.0637 13.3791 14.8903 13.8997 14.9188 14.4293V37.4217C14.8837 37.9522 15.0579 38.4752 15.4034 38.8769L15.4756 38.9601L28.25 26.0815V25.7696L15.4756 12.9014L15.4034 12.9741Z" fill="url(#paint3_linear_72_204)"/>
<path d="M78.5897 27.759C77.6202 27.7614 76.6731 28.0643 75.8682 28.6295C75.0633 29.1947 74.4368 29.9967 74.0679 30.9342C73.699 31.8716 73.6042 32.9024 73.7956 33.8962C73.987 34.89 74.4559 35.8021 75.1431 36.5172C75.8302 37.2323 76.7048 37.7183 77.6561 37.9138C78.6075 38.1092 79.5929 38.0053 80.4878 37.6151C81.3826 37.225 82.1467 36.5662 82.6835 35.722C83.2202 34.8778 83.5055 33.8862 83.5032 32.8724C83.5126 32.1962 83.3918 31.5249 83.1479 30.8985C82.904 30.2721 82.542 29.7034 82.0835 29.2263C81.6251 28.7492 81.0795 28.3734 80.4793 28.1213C79.879 27.8692 79.2364 27.746 78.5897 27.759ZM78.5897 35.9766C77.9954 36.02 77.4024 35.8756 76.8877 35.562C76.373 35.2484 75.9605 34.7801 75.7037 34.2181C75.4469 33.6561 75.3578 33.0263 75.4479 32.4106C75.5379 31.7949 75.8031 31.2218 76.2088 30.7658C76.6145 30.3097 77.1421 29.9918 77.7229 29.8534C78.3037 29.7151 78.9109 29.7626 79.4656 29.9898C80.0202 30.217 80.4967 30.6134 80.833 31.1275C81.1693 31.6416 81.35 32.2496 81.3514 32.8724C81.3699 33.2671 81.3127 33.6616 81.1831 34.0328C81.0535 34.4039 80.8541 34.7442 80.5967 35.0335C80.3393 35.3228 80.0291 35.5553 79.6844 35.7173C79.3397 35.8793 78.9675 35.9674 78.5897 35.9766ZM67.865 27.759C66.8955 27.7614 65.9484 28.0643 65.1435 28.6295C64.3386 29.1947 63.7121 29.9967 63.3432 30.9342C62.9743 31.8716 62.8795 32.9024 63.0709 33.8962C63.2623 34.89 63.7312 35.8021 64.4184 36.5172C65.1056 37.2323 65.9801 37.7183 66.9315 37.9138C67.8828 38.1092 68.8682 38.0053 69.7631 37.6151C70.6579 37.225 71.4221 36.5662 71.9588 35.722C72.4956 34.8778 72.7808 33.8862 72.7786 32.8724C72.7879 32.1962 72.6671 31.5249 72.4232 30.8985C72.1793 30.2721 71.8173 29.7034 71.3589 29.2263C70.9004 28.7492 70.3548 28.3734 69.7546 28.1213C69.1543 27.8692 68.5117 27.746 67.865 27.759ZM67.865 35.9766C67.2707 36.02 66.6777 35.8756 66.1631 35.562C65.6484 35.2484 65.2358 34.7801 64.979 34.2181C64.7222 33.6561 64.6331 33.0263 64.7232 32.4106C64.8133 31.7949 65.0784 31.2218 65.4841 30.7658C65.8899 30.3097 66.4174 29.9918 66.9983 29.8534C67.5791 29.7151 68.1863 29.7626 68.7409 29.9898C69.2956 30.217 69.772 30.6134 70.1083 31.1275C70.4446 31.6416 70.6253 32.2496 70.6267 32.8724C70.6453 33.2671 70.588 33.6616 70.4584 34.0328C70.3288 34.4039 70.1294 34.7442 69.872 35.0335C69.6146 35.3228 69.3044 35.5553 68.9597 35.7173C68.615 35.8793 68.2428 35.9674 67.865 35.9766ZM55.1151 29.3351V31.5008H60.0862C60.0082 32.5209 59.6027 33.4834 58.9354 34.232C58.4368 34.7632 57.837 35.1791 57.175 35.4526C56.5129 35.7262 55.8033 35.8514 55.092 35.8202C53.6271 35.8202 52.2222 35.2117 51.1864 34.1287C50.1505 33.0456 49.5686 31.5767 49.5686 30.045C49.5686 28.5133 50.1505 27.0444 51.1864 25.9614C52.2222 24.8783 53.6271 24.2698 55.092 24.2698C56.4964 24.248 57.8525 24.8056 58.8664 25.8219L60.3278 24.2939C59.642 23.5847 58.8276 23.0256 57.9325 22.6496C57.0374 22.2736 56.0796 22.0882 55.1151 22.1042C54.0921 22.0625 53.0716 22.2373 52.1147 22.6179C51.1578 22.9985 50.2843 23.5771 49.5465 24.3192C48.8086 25.0612 48.2216 25.9514 47.8207 26.9363C47.4197 27.9212 47.213 28.9806 47.213 30.051C47.213 31.1214 47.4197 32.1809 47.8207 33.1658C48.2216 34.1507 48.8086 35.0408 49.5465 35.7829C50.2843 36.5249 51.1578 37.1036 52.1147 37.4842C53.0716 37.8648 54.0921 38.0395 55.1151 37.9979C56.0994 38.039 57.0809 37.8619 57.9952 37.4783C58.9095 37.0947 59.7358 36.5132 60.4199 35.772C61.6283 34.3841 62.2721 32.5586 62.215 30.6827C62.2191 30.2312 62.1844 29.7802 62.1114 29.3351H55.1151ZM107.254 31.0196C106.954 30.0964 106.393 29.2904 105.645 28.7081C104.897 28.1259 103.997 27.7949 103.065 27.759C102.436 27.7577 101.813 27.8914 101.235 28.1519C100.657 28.4123 100.136 28.794 99.7046 29.2732C99.2732 29.7525 98.9404 30.3192 98.7268 30.9382C98.5131 31.5573 98.4232 32.2156 98.4626 32.8724C98.4527 33.9707 98.783 35.0429 99.404 35.9288C100.025 36.8147 100.903 37.4667 101.908 37.7875C102.913 38.1083 103.99 38.0807 104.978 37.7088C105.967 37.3369 106.813 36.6406 107.392 35.7239L105.724 34.5208C105.475 34.9542 105.122 35.3122 104.7 35.5591C104.278 35.806 103.802 35.9334 103.319 35.9285C102.82 35.95 102.327 35.8133 101.903 35.5363C101.48 35.2593 101.147 34.8549 100.948 34.3764L107.496 31.549L107.254 31.0196ZM100.58 32.7281C100.557 32.3543 100.605 31.9795 100.722 31.6255C100.839 31.2715 101.022 30.9455 101.261 30.6665C101.5 30.3875 101.79 30.1611 102.113 30.0007C102.437 29.8403 102.788 29.749 103.146 29.7322C103.517 29.7085 103.886 29.7998 104.207 29.9946C104.529 30.1893 104.788 30.4789 104.953 30.8271L100.58 32.7281ZM95.2636 37.6851H97.4154V22.6456H95.2636V37.6851ZM91.7424 28.902H91.6618C91.3404 28.5192 90.9436 28.2136 90.4988 28.0059C90.0539 27.7983 89.5714 27.6935 89.0842 27.6989C87.8267 27.7626 86.6408 28.3298 85.7724 29.2829C84.904 30.236 84.4196 31.5019 84.4196 32.8183C84.4196 34.1347 84.904 35.4006 85.7724 36.3537C86.6408 37.3068 87.8267 37.874 89.0842 37.9377C89.5721 37.948 90.0561 37.8454 90.5017 37.6374C90.9472 37.4295 91.3434 37.1212 91.6618 36.7346H91.7424V37.4685C91.7424 39.4297 90.7413 40.4764 89.1303 40.4764C88.5921 40.464 88.0696 40.2847 87.6291 39.9613C87.1886 39.6378 86.85 39.1847 86.6562 38.6596L84.792 39.4657C85.1367 40.3708 85.7359 41.1452 86.5105 41.6866C87.2851 42.228 88.1986 42.5108 89.1303 42.4977C91.6503 42.4977 93.7331 40.9456 93.7331 37.1677V28.0598H91.7424V28.902ZM89.2683 35.9766C88.5144 35.9274 87.8067 35.5796 87.2894 35.004C86.7722 34.4284 86.4842 33.6683 86.4842 32.8785C86.4842 32.0886 86.7722 31.3285 87.2894 30.7529C87.8067 30.1773 88.5144 29.8295 89.2683 29.7803C89.6368 29.7969 89.9984 29.8909 90.3314 30.0566C90.6645 30.2223 90.9623 30.4564 91.2071 30.7449C91.4518 31.0333 91.6386 31.3704 91.7563 31.7359C91.8739 32.1014 91.9201 32.4879 91.892 32.8724C91.9234 33.2583 91.8796 33.6468 91.7633 34.0144C91.647 34.3821 91.4606 34.7212 91.2153 35.0114C90.9701 35.3016 90.6711 35.5367 90.3364 35.7026C90.0018 35.8685 89.6384 35.9617 89.2683 35.9766ZM117.334 22.6456H112.179V37.6851H114.331V31.9821H117.334C117.948 32.0282 118.563 31.9416 119.143 31.7279C119.723 31.5142 120.255 31.1778 120.705 30.7398C121.155 30.3018 121.514 29.7716 121.759 29.1821C122.005 28.5927 122.131 27.9567 122.131 27.3138C122.131 26.671 122.005 26.035 121.759 25.4455C121.514 24.8561 121.155 24.3258 120.705 23.8879C120.255 23.4499 119.723 23.1135 119.143 22.8998C118.563 22.686 117.948 22.5995 117.334 22.6456ZM117.334 29.8645H114.331V24.7391H117.38C117.704 24.7391 118.024 24.8057 118.323 24.9351C118.621 25.0645 118.893 25.2541 119.122 25.4932C119.35 25.7323 119.532 26.0161 119.655 26.3285C119.779 26.6409 119.843 26.9757 119.843 27.3138C119.843 27.652 119.779 27.9868 119.655 28.2992C119.532 28.6115 119.35 28.8954 119.122 29.1345C118.893 29.3736 118.621 29.5632 118.323 29.6926C118.024 29.822 117.704 29.8886 117.38 29.8886L117.334 29.8645ZM130.614 27.7109C129.83 27.6604 129.049 27.8511 128.368 28.2595C127.687 28.668 127.136 29.2762 126.782 30.0089L128.68 30.8391C128.872 30.4774 129.16 30.1816 129.509 29.9873C129.859 29.793 130.254 29.7086 130.648 29.7442C130.921 29.7109 131.198 29.7347 131.462 29.8144C131.727 29.8941 131.973 30.028 132.187 30.2083C132.401 30.3886 132.579 30.6117 132.71 30.8646C132.841 31.1175 132.922 31.3952 132.95 31.6813V31.8257C132.258 31.4454 131.487 31.2472 130.706 31.2482C128.657 31.2482 126.563 32.4513 126.563 34.6411C126.583 35.1065 126.693 35.5629 126.885 35.9833C127.077 36.4036 127.348 36.7792 127.682 37.0878C128.016 37.3965 128.406 37.6318 128.828 37.7799C129.251 37.9279 129.698 37.9857 130.142 37.9498C130.682 37.981 131.22 37.8615 131.701 37.6036C132.183 37.3456 132.589 36.9585 132.881 36.4819H132.95V37.6851H135.021V31.8979C135.021 29.263 133.111 27.7349 130.66 27.7349L130.614 27.7109ZM130.349 35.9525C129.647 35.9525 128.669 35.5795 128.669 34.6772C128.669 33.474 129.889 33.0649 130.97 33.0649C131.654 33.0473 132.329 33.2218 132.927 33.5703C132.854 34.2237 132.558 34.8275 132.092 35.27C131.627 35.7124 131.024 35.9635 130.395 35.9766L130.349 35.9525ZM142.57 28.0598L140.107 34.5809H140.038L137.483 28.0598H135.182L139.014 37.1797L136.827 42.245H139.071L144.963 28.0598H142.57ZM123.237 37.6851H125.378V22.6456H123.237V37.6851Z" fill="white"/>
<defs>
<linearGradient id="paint0_linear_72_204" x1="12.1655" y1="5.32326" x2="22.7258" y2="15.7982" gradientUnits="userSpaceOnUse">
<stop stop-color="#32A071"/>
<stop offset="0.07" stop-color="#2DA771"/>
<stop offset="0.48" stop-color="#15CF74"/>
<stop offset="0.8" stop-color="#06E775"/>
<stop offset="1" stop-color="#00F076"/>
</linearGradient>
<linearGradient id="paint1_linear_72_204" x1="30.2394" y1="28.3131" x2="6.58268" y2="51.7681" gradientUnits="userSpaceOnUse">
<stop stop-color="#FF3A44"/>
<stop offset="1" stop-color="#C31162"/>
</linearGradient>
<linearGradient id="paint2_linear_72_204" x1="39.5181" y1="25.9258" x2="14.5775" y2="25.9258" gradientUnits="userSpaceOnUse">
<stop stop-color="#FFE000"/>
<stop offset="0.41" stop-color="#FFBD00"/>
<stop offset="0.78" stop-color="#FFA500"/>
<stop offset="1" stop-color="#FF9C00"/>
</linearGradient>
<linearGradient id="paint3_linear_72_204" x1="27.1159" y1="14.1903" x2="9.6747" y2="31.4904" gradientUnits="userSpaceOnUse">
<stop stop-color="#00A0FF"/>
<stop offset="0.01" stop-color="#00A1FF"/>
<stop offset="0.26" stop-color="#00BEFF"/>
<stop offset="0.51" stop-color="#00D2FF"/>
<stop offset="0.76" stop-color="#00DFFF"/>
<stop offset="1" stop-color="#00E3FF"/>
</linearGradient>
</defs>
</svg>
