<svg xmlns="http://www.w3.org/2000/svg" viewBox="0 0 74.44 74.44"><defs><style>.cls-1{fill:#ef4048;}.cls-2{fill:#fff;}</style></defs><title>Asset 8</title><g id="Layer_2" data-name="Layer 2"><g id="Layer_1-2" data-name="Layer 1"><circle class="cls-1" cx="37.22" cy="37.22" r="37.22"/><path class="cls-2" d="M44.92,54H39.17V43h5.57A3,3,0,0,1,47,43.8a2.76,2.76,0,0,1,.8,2,2.71,2.71,0,0,1-.53,1.69,2.18,2.18,0,0,1-1.3.84,2.23,2.23,0,0,1,1.45.91A2.89,2.89,0,0,1,48,51a2.94,2.94,0,0,1-.81,2.13A3,3,0,0,1,44.92,54Zm-.67-6.61a1.22,1.22,0,0,0,.9-.33,1.12,1.12,0,0,0,.34-.86,1.18,1.18,0,0,0-.34-.86,1.21,1.21,0,0,0-.9-.34H41.43v2.39ZM44.33,52a1.41,1.41,0,0,0,1-.34,1.21,1.21,0,0,0,.36-.93,1.27,1.27,0,0,0-.36-.92,1.34,1.34,0,0,0-1-.37h-2.9V52Z"/><path class="cls-2" d="M56.14,53a4.19,4.19,0,0,1-5.89,0,4.31,4.31,0,0,1-1.1-3,4.26,4.26,0,0,1,1.1-3,4.19,4.19,0,0,1,5.89,0,4.23,4.23,0,0,1,1.11,3A4.27,4.27,0,0,1,56.14,53Zm-4.37-1.33a1.7,1.7,0,0,0,1.42.67,1.72,1.72,0,0,0,1.44-.67,2.83,2.83,0,0,0,0-3.3,1.72,1.72,0,0,0-1.44-.67,1.7,1.7,0,0,0-1.42.67,2.83,2.83,0,0,0,0,3.3Z"/><polygon class="cls-2" points="60.97 46.01 60.39 47.84 62.5 47.84 63.09 46.01 60.97 46.01"/><path class="cls-2" d="M13.61,54H11.36V46h2.25Z"/><path class="cls-2" d="M22.84,54h-2V49.16c0-1-.47-1.49-1.42-1.49a2,2,0,0,0-1.74.95V54h-2V46h2v.66a4.07,4.07,0,0,1,2.68-.86,2.37,2.37,0,0,1,1.86.68,2.62,2.62,0,0,1,.63,1.86Z"/><path class="cls-2" d="M36.53,53a4.2,4.2,0,0,1-5.9,0,4.59,4.59,0,0,1,0-6,4.23,4.23,0,0,1,5.9,0,4.56,4.56,0,0,1,0,6Zm-4.38-1.32a1.86,1.86,0,0,0,2.86,0,2.85,2.85,0,0,0,0-3.31,1.86,1.86,0,0,0-2.86,0,2.89,2.89,0,0,0,0,3.31Z"/><polygon class="cls-2" points="11.98 43.02 11.36 44.97 13.62 44.97 14.25 43.02 11.98 43.02"/><polygon class="cls-2" points="27.14 46.01 26.56 47.84 28.68 47.84 29.26 46.01 27.14 46.01"/><path class="cls-2" d="M28.56,47.78A8.35,8.35,0,0,1,28.75,46H27.32v-.43a1.22,1.22,0,0,1,.26-.84.88.88,0,0,1,.69-.29,1.11,1.11,0,0,1,.84.33l.09-.14a7,7,0,0,1,.64-1.13,2.59,2.59,0,0,0-2-.71,2.47,2.47,0,0,0-1.87.75,2.85,2.85,0,0,0-.71,2V46H24v1.83h1.27V54h2V47.84h1.25S28.56,47.8,28.56,47.78Z"/><path class="cls-2" d="M62.53,52.11a1,1,0,0,1-.65.21.61.61,0,0,1-.51-.25,1,1,0,0,1-.19-.63v-3.6h1.21A14.66,14.66,0,0,1,62.65,46H61.18V42.8l-2,1V46H57.88v1.83h1.27V52a2.19,2.19,0,0,0,.55,1.62,2.16,2.16,0,0,0,1.62.56,2.51,2.51,0,0,0,1.57-.43A13.56,13.56,0,0,1,62.53,52.11Z"/><path class="cls-2" d="M46.39,37.21H42.06L35.77,20.28h3.95l4.51,12,4.48-12h3.95Z"/><polygon class="cls-2" points="33.84 33.65 28.68 33.65 29.86 29.99 33.53 29.99 33.84 33.65"/><polygon class="cls-2" points="34.73 37.21 38.68 37.21 32.41 20.28 28.07 20.28 21.79 37.21 25.73 37.21 30.24 24.91 34.73 37.21"/></g></g></svg>